<svg version="1.1"
	 xmlns="http://www.w3.org/2000/svg" xmlns:xlink="http://www.w3.org/1999/xlink" xmlns:a="http://ns.adobe.com/AdobeSVGViewerExtensions/3.0/"
	 x="0px" y="0px" width="260.5px" height="1234.2px" viewBox="0 0 260.5 1234.2" style="enable-background:new 0 0 260.5 1234.2;"
	 xml:space="preserve">
<style type="text/css">
	.st0{fill:url(#SVGID_1_);}
	.st1{fill:url(#SVGID_2_);}
	.st2{fill:url(#SVGID_3_);}
	.st3{fill:url(#SVGID_4_);}
	.st4{fill:url(#SVGID_5_);}
	.st5{fill:url(#SVGID_6_);}
	.st6{fill:url(#SVGID_7_);}
	.st7{fill:#CC1F1C;}
	.st8{fill:#FFFFFF;}
	.st9{fill:url(#SVGID_8_);}
	.st10{fill:url(#SVGID_9_);}
	.st11{fill:url(#SVGID_10_);}
	.st12{fill:url(#SVGID_11_);}
	.st13{fill:url(#SVGID_12_);}
	.st14{fill:url(#SVGID_13_);}
	.st15{fill:url(#SVGID_14_);}
	.st16{fill:url(#SVGID_15_);}
	.st17{fill:url(#SVGID_16_);}
</style>
<defs>
</defs>
<g>
	
		<linearGradient id="SVGID_1_" gradientUnits="userSpaceOnUse" x1="386.3945" y1="480.9814" x2="456.2907" y2="58.3505" gradientTransform="matrix(0.9862 -0.1503 0.1631 0.9526 -372.5725 479.179)">
		<stop  offset="0" style="stop-color:#FFFFFF;stop-opacity:0"/>
		<stop  offset="0.1724" style="stop-color:#C6EFFA;stop-opacity:0.1724"/>
		<stop  offset="0.3969" style="stop-color:#82DCF4;stop-opacity:0.3969"/>
		<stop  offset="0.6002" style="stop-color:#4CCDEF;stop-opacity:0.6002"/>
		<stop  offset="0.7748" style="stop-color:#25C2EC;stop-opacity:0.7748"/>
		<stop  offset="0.9138" style="stop-color:#0EBBEA;stop-opacity:0.9138"/>
		<stop  offset="1" style="stop-color:#05B9E9"/>
	</linearGradient>
	<path class="st0" d="M65.9,879.1L65.9,879.1c8.4,0.9,15.9-5.3,16.8-13.7l38.9-380.8c0.9-8.4-5.3-15.9-13.7-16.8l-2.2-1.6l-53.5,396
		C51.4,870.7,57.5,878.2,65.9,879.1z"/>
	
		<linearGradient id="SVGID_2_" gradientUnits="userSpaceOnUse" x1="389.175" y1="560.7888" x2="456.5308" y2="139.3775" gradientTransform="matrix(0.9876 -0.1641 0.1579 1.0039 -364.7726 402.9102)">
		<stop  offset="0" style="stop-color:#FFFFFF;stop-opacity:0"/>
		<stop  offset="0.1724" style="stop-color:#C6EFFA;stop-opacity:0.1724"/>
		<stop  offset="0.3969" style="stop-color:#82DCF4;stop-opacity:0.3969"/>
		<stop  offset="0.6002" style="stop-color:#4CCDEF;stop-opacity:0.6002"/>
		<stop  offset="0.7748" style="stop-color:#25C2EC;stop-opacity:0.7748"/>
		<stop  offset="0.9138" style="stop-color:#0EBBEA;stop-opacity:0.9138"/>
		<stop  offset="1" style="stop-color:#05B9E9"/>
	</linearGradient>
	<path class="st1" d="M88.3,901.4l6.4,0.7c6.7,0.7,12.8-6.1,13.5-15l29.7-402.4c0.7-8.5,1.4-15.8-4.9-16.7l0,0
		c-6.7-1-12.9,5.7-13.9,14.6L78,884.3C77.1,893.1,81.7,900.7,88.3,901.4z"/>
	
		<linearGradient id="SVGID_3_" gradientUnits="userSpaceOnUse" x1="241.2034" y1="1143.2418" x2="277.166" y2="717.5829" gradientTransform="matrix(1.0072 -0.355 8.509304e-02 1.7155 -257.4843 -646.1799)">
		<stop  offset="0" style="stop-color:#FFFFFF;stop-opacity:0"/>
		<stop  offset="0.1724" style="stop-color:#C6EFFA;stop-opacity:0.1724"/>
		<stop  offset="0.3969" style="stop-color:#82DCF4;stop-opacity:0.3969"/>
		<stop  offset="0.6002" style="stop-color:#4CCDEF;stop-opacity:0.6002"/>
		<stop  offset="0.7748" style="stop-color:#25C2EC;stop-opacity:0.7748"/>
		<stop  offset="0.9138" style="stop-color:#0EBBEA;stop-opacity:0.9138"/>
		<stop  offset="1" style="stop-color:#05B9E9"/>
	</linearGradient>
	<polygon class="st2" points="29.2,1231.1 59.6,1234.2 136.3,484.3 105.3,481.7 	"/>
	<g>
		<linearGradient id="SVGID_4_" gradientUnits="userSpaceOnUse" x1="0" y1="422.7785" x2="83.9433" y2="422.7785">
			<stop  offset="0" style="stop-color:#FF4240"/>
			<stop  offset="0.1756" style="stop-color:#FB413F"/>
			<stop  offset="0.3528" style="stop-color:#EF3C3A"/>
			<stop  offset="0.5309" style="stop-color:#DB3533"/>
			<stop  offset="0.7096" style="stop-color:#BE2A28"/>
			<stop  offset="0.8871" style="stop-color:#9A1D1B"/>
			<stop  offset="1" style="stop-color:#7F1311"/>
		</linearGradient>
		<path class="st3" d="M49.4,354.4c0,0-31.5-11.6-46.7,26.3c0,0-4.9,57.5-1.6,112.2l82.8-92.4L49.4,354.4z"/>
	</g>
	<g>
		<linearGradient id="SVGID_5_" gradientUnits="userSpaceOnUse" x1="176.984" y1="445.8488" x2="260.5226" y2="445.8488">
			<stop  offset="0" style="stop-color:#FF4240"/>
			<stop  offset="0.1756" style="stop-color:#FB413F"/>
			<stop  offset="0.3528" style="stop-color:#EF3C3A"/>
			<stop  offset="0.5309" style="stop-color:#DB3533"/>
			<stop  offset="0.7096" style="stop-color:#BE2A28"/>
			<stop  offset="0.8871" style="stop-color:#9A1D1B"/>
			<stop  offset="1" style="stop-color:#7F1311"/>
		</linearGradient>
		<path class="st4" d="M220.3,373.2c0,0,33.2-4.9,40.2,35.4c0,0-7.1,57.3-21.6,110.1L177,411.2L220.3,373.2z"/>
	</g>
	<g>
		<linearGradient id="SVGID_6_" gradientUnits="userSpaceOnUse" x1="85.5685" y1="69.4613" x2="237.2105" y2="69.4613">
			<stop  offset="0" style="stop-color:#FF4240"/>
			<stop  offset="0.1756" style="stop-color:#FB413F"/>
			<stop  offset="0.3528" style="stop-color:#EF3C3A"/>
			<stop  offset="0.5309" style="stop-color:#DB3533"/>
			<stop  offset="0.7096" style="stop-color:#BE2A28"/>
			<stop  offset="0.8871" style="stop-color:#9A1D1B"/>
			<stop  offset="1" style="stop-color:#7F1311"/>
		</linearGradient>
		<path class="st5" d="M173.7,0c0,0-48.3,36.9-88.1,115.8c14.4,8.2,40.8,19.9,77,22.6c14.9,1.1,31.4,0.7,49.4-2.2
			c8.1-1.3,16.5-3,25.2-5.3C213.7,50.7,173.7,0,173.7,0z"/>
	</g>
	<linearGradient id="SVGID_7_" gradientUnits="userSpaceOnUse" x1="42.4742" y1="294.8391" x2="253.9667" y2="294.8391">
		<stop  offset="5.405406e-03" style="stop-color:#E86046"/>
		<stop  offset="0.251" style="stop-color:#E65C43"/>
		<stop  offset="0.4988" style="stop-color:#E1503C"/>
		<stop  offset="0.7478" style="stop-color:#D83C2F"/>
		<stop  offset="0.9963" style="stop-color:#CC1F1C"/>
		<stop  offset="1" style="stop-color:#CC1F1C"/>
	</linearGradient>
	<path class="st6" d="M237.2,130.9c-8.7,2.3-17.1,4.1-25.2,5.3c-18,2.8-34.6,3.3-49.4,2.2c-36.2-2.7-62.5-14.4-77-22.6
		c-16.7,33.1-32,73.7-41.6,122c0,0-15.9,152.5,55.8,226l36.1,7.3l13.9,2.8c97.8-80,104.1-216.7,104.1-216.7
		C255.3,210.3,248,167.5,237.2,130.9z"/>
	<g>
		
			<ellipse transform="matrix(0.9872 -0.1596 0.1596 0.9872 -32.8413 26.5734)" class="st7" cx="149" cy="217.8" rx="42.4" ry="42.4"/>
	</g>
	
		<ellipse transform="matrix(0.9872 -0.1596 0.1596 0.9872 -32.9769 26.5787)" class="st8" cx="149" cy="218.6" rx="33.8" ry="33.8"/>
	<g>
		<linearGradient id="SVGID_8_" gradientUnits="userSpaceOnUse" x1="90.7113" y1="470.9581" x2="153.8634" y2="470.9581">
			<stop  offset="0" style="stop-color:#FF4240"/>
			<stop  offset="0.1756" style="stop-color:#FB413F"/>
			<stop  offset="0.3528" style="stop-color:#EF3C3A"/>
			<stop  offset="0.5309" style="stop-color:#DB3533"/>
			<stop  offset="0.7096" style="stop-color:#BE2A28"/>
			<stop  offset="0.8871" style="stop-color:#9A1D1B"/>
			<stop  offset="1" style="stop-color:#7F1311"/>
		</linearGradient>
		<path class="st9" d="M143,485.1l-43.5-3.7c-5.3-0.4-9.2-5.1-8.8-10.4l0.5-5.4c0.4-5.3,5.1-9.2,10.4-8.8l43.5,3.7
			c5.3,0.4,9.2,5.1,8.8,10.4l-0.5,5.4C152.9,481.6,148.3,485.5,143,485.1z"/>
	</g>
</g>
</svg>
