<svg version="1.1"
	 xmlns="http://www.w3.org/2000/svg" xmlns:xlink="http://www.w3.org/1999/xlink" xmlns:a="http://ns.adobe.com/AdobeSVGViewerExtensions/3.0/"
	 x="0px" y="0px" width="1920.2px" height="987.4px" viewBox="0 0 1920.2 987.4"
	 style="overflow:scroll;enable-background:new 0 0 1920.2 987.4;" xml:space="preserve">
<style type="text/css">
	.st0{fill:#31547A;}
	.st1{fill:#CEDADD;}
	.st2{fill:#FFFFFF;}
	.st3{opacity:0.5;fill:#FFFFFF;enable-background:new    ;}
	.st4{fill:#FF9700;}
	.st5{fill:#F15A24;}
	.st6{fill:#FCEE21;}
	.st7{fill:url(#SVGID_1_);}
	.st8{fill:url(#SVGID_2_);}
	.st9{opacity:0.47;fill:url(#SVGID_3_);enable-background:new    ;}
	.st10{fill:url(#SVGID_4_);}
	.st11{fill:url(#SVGID_5_);}
	.st12{fill:url(#SVGID_6_);}
	.st13{fill:#4EC1FF;}
	.st14{fill:url(#SVGID_7_);}
	.st15{fill:url(#SVGID_8_);}
	.st16{opacity:0.4;fill:#C0ECFF;enable-background:new    ;}
	.st17{fill:url(#SVGID_9_);}
	.st18{opacity:0.29;fill:#FFD24B;enable-background:new    ;}
	.st19{opacity:0.29;fill:#6D210C;enable-background:new    ;}
	.st20{fill:url(#SVGID_10_);}
	.st21{fill:url(#SVGID_11_);}
	.st22{fill:url(#SVGID_12_);}
	.st23{fill:url(#SVGID_13_);}
	.st24{opacity:0.47;fill:url(#SVGID_14_);enable-background:new    ;}
	.st25{fill:url(#SVGID_15_);}
	.st26{fill:url(#SVGID_16_);}
	.st27{fill:url(#SVGID_17_);}
	.st28{fill:url(#SVGID_18_);}
	.st29{fill:url(#SVGID_19_);}
	.st30{fill:url(#SVGID_20_);}
	.st31{fill:url(#SVGID_21_);}
	.st32{fill:url(#SVGID_22_);}
</style>
<defs>
</defs>
<g>
	<g>
		<path class="st0" d="M1920.2,256.8c-56.4,6.2-100.5,52.9-102.5,110.5c-5.8-3.1-12.3-4.9-19.3-4.9c-19.8,0-36.2,14.1-39.9,32.7
			c-9.4-2.6-19.4-4-29.7-4c-60.9,0-110.3,49.4-110.3,110.3c0,2,0.1,4,0.2,6c-26.2,4.7-46.2,27.6-46.2,55.1c0,1.5,0.1,3,0.2,4.5
			c-47.6,6.7-84.2,47.6-84.2,97c0,2.7,0.1,5.3,0.3,7.9c-29.1,12.3-42.1,37.2-42.1,37.2c-99.9-26.7-115.2,64.7-115.2,64.7
			c-19.3-1.2-21.3,12.5-21.3,12.5v0.4c-11.6-13.8-47.7-45.8-113.8-15.2c0,0,3.1-60.7-62.1-71.5s-98.6,29.8-98.6,29.8
			s-97.3-196.6-288.8-73.9c0,0-38.7-88.6-122.3-88S493.3,630.4,491.4,631c-1.9,0.6-76-32.7-136.2,20.8c0,0-33.9-12.5-48.3,0
			c0,0-39.1-86.8-136.9-39.3c0,0-6.3-51.2-67.8-51.8s-65.3,45.8-65.3,45.8s-22.3-6.3-36.7,4.7v306.9h1920V256.8z"/>
		<path class="st1" d="M1819.4,509c-6.2-1.5-12.7-2.4-19.3-2.4c-44.2,0-80,35.8-80,80c0,0.8,0,1.5,0.1,2.3
			c-51.1,9.5-92.1,47.9-105.4,97.5c-9.4-4.8-20.1-7.5-31.4-7.5c-38.2,0-69.3,31-69.3,69.3c0,0.1,0,0.3,0,0.4
			c-23.9-8.2-56.3-13.4-91.2-1.5c-70.3,23.9-74.3,66-74.3,66s-63.1-5.1-92.9,37.1c-23.3-41.9-71.7-36.8-71.7-36.8
			s-3.2-42.8-57.8-67.2c-54.6-24.4-101.7,21.7-101.7,21.7s-25.7-32.5-77.8-39s-81,41.2-81,41.2c-35.8-17.9-55.9-7.6-55.9-7.6
			s-75.6-65.9-148.3-3.1c0,0-40-45.2-99.3-9.4c0,0-62.1-19.5-70.6,30.1c0,0-33-55.3-98.9-30.1c0,0-43.3-86.2-129.9-25.2
			c0,0-46.2-21.9-74.4,19.5c0,0-26.3-17.1-41.4-4.9c0,0-33.2-75.9-146.9-55.3v253.3h1920l0.1-516.9
			C1871,425.9,1830.9,461.9,1819.4,509z"/>
		<path class="st2" d="M1920.2,605.1c-4.7-2.2-10-3.4-15.5-3.4c-13.5,0-25.4,7.3-31.8,18.1c-6.2-4.8-14.1-7.7-22.6-7.7
			c-11.9,0-22.6,5.7-29.3,14.5c-5.4-6.9-13.6-11.5-23.1-12c-17.4-1-32.3,12.4-33.3,29.8c-0.3,5.3,0.7,10.3,2.8,14.8
			c-1.2-0.2-2.4-0.3-3.6-0.4c-17.4-1-32.3,12.4-33.3,29.8c-0.3,5.6,0.9,11,3.2,15.7c-2.8-0.7-5.7-1-8.7-1c-14,0-26.1,7.7-32.4,19.2
			c-4.3-1.7-9-2.7-13.9-2.7c-20.4,0-37,16.6-37,37c0,8.3,2.7,16,7.3,22.1c-1.8-0.4-3.7-0.7-5.6-0.8c-13.2-0.7-24.9,6.7-30.3,17.9
			c-5.1-4.6-11.8-7.5-19.2-7.9c-17.4-1-32.3,12.4-33.3,29.8c-0.4,6.6,1.3,12.8,4.5,18c-13.1,3.6-23.4,14.3-26.3,27.7
			c-0.3,0-0.6,0-0.9,0c-20.4,0-37,16.6-37,37c0,2.8,0.3,5.6,0.9,8.3c-7.6-4.6-28.3-15.2-44.1-4.7c0,0,5-28.2-18.8-38.8
			s-33.9,0.2-33.9,0.2s-12.7-23.6-35.8-10.4c-23.1-13.1-35.8,10.4-35.8,10.4s-10.1-10.8-33.9-0.2c-23.7,10.6-18.8,38.8-18.8,38.8
			c-19.8-13.2-47.1,6.6-47.1,6.6c-27.8-22.1-65.9-8.8-65.9-8.8c-11-39.2-45.5-34.5-45.5-34.5s9.1-22.2-18.2-34.7
			c-27.3-12.4-40.2,19.1-40.2,19.1c-63.4-23.2-102.6,27-102.6,27c-35.2-51.8-91.7-20.4-91.7-20.4c-12.9-38.9-51.2-22-51.2-22
			s-38.3-16.9-51.2,22c0,0-56.5-31.4-91.7,20.4c0,0-39.2-50.2-102.6-27c0,0-12.9-31.5-40.2-19.1s-18.2,34.7-18.2,34.7
			s-34.5-4.7-45.5,34.5c0,0-38.1-13.3-65.9,8.8c0,0-27.3-19.8-47.1-6.6c0,0,5-28.2-18.8-38.8c-23.8-10.6-33.9,0.2-33.9,0.2
			s-12.7-23.6-35.8-10.4c-23.1-13.1-35.8,10.4-35.8,10.4s-10.1-10.8-33.9-0.2c-23.7,10.6-18.8,38.8-18.8,38.8
			c-19.8-13.2-47.1,6.6-47.1,6.6C104,888.7,65.9,902,65.9,902c-11-39.2-45.5-34.5-45.5-34.5s9.1-22.2-18.2-34.7
			c-0.7-0.3-1.5-0.6-2.2-0.9v155.5h1920.1V605.1H1920.2z"/>
	</g>
	<g>
		<path class="st3" d="M1454.2,987.2h-356.8c21.4-41.6,42.3-87.4,61.5-137.4c53.6-139.7,77.1-269,86.7-374.6c23.5,0,46.9,0,70.4,0
			c4.3,102.7,22.4,234.9,77.3,378.3C1412,902.8,1432.9,947.3,1454.2,987.2z"/>
		<g>
			<g>
				<path class="st4" d="M1280.8,611.1c-5.1-9.3-9.2-19.1-12.5-29.2c-5.6-17.5-8.2-35.7-7.8-54.2c0.1-2.4-1.4-4.7-3.7-5.6
					c-0.7-0.3-1.4-0.4-2.2-0.4c-1.6,0-3.2,0.6-4.3,1.9c-2.8,3.1-5.1,6.4-7.2,10c-3.1-9.7-5.2-23-1.2-37.2c1.7-6,4.4-11.8,8-17.1
					h61.7c3.6,5.4,6.3,11.1,8,17.1c4,14.2,1.9,27.5-1.2,37.2c-2-3.6-4.4-6.9-7.2-10c-1.2-1.3-2.7-1.9-4.3-1.9
					c-0.7,0-1.4,0.2-2.2,0.4c-2.2,0.9-3.8,3.1-3.7,5.6c0.4,18.5-2.2,36.7-7.8,54.2C1290,591.9,1285.8,601.7,1280.8,611.1z"/>
				<path class="st5" d="M1308.3,485c2.4,4.1,4.3,8.4,5.6,12.9c2.2,7.6,2.3,15,1.5,21.6c-2.2-2.4-5.4-3.8-8.6-3.8
					c-1.4,0-3,0.3-4.3,0.8c-4.6,1.8-7.4,6.3-7.4,11.1c0.4,17.9-2.2,35.5-7.5,52.3c-2,6.1-4.2,12-6.9,17.9
					c-2.6-5.8-4.9-11.8-6.9-17.9c-5.4-16.9-7.9-34.5-7.5-52.3c0.1-4.8-2.9-9.3-7.4-11.1c-1.4-0.5-2.9-0.8-4.3-0.8
					c-3.2,0-6.4,1.3-8.6,3.8c-0.8-6.6-0.6-13.9,1.5-21.6c1.3-4.5,3.1-8.8,5.6-12.9h27.6H1308.3 M1314.6,473.3c-11.3,0-22.6,0-33.8,0
					c-11.3,0-22.6,0-33.8,0c-3.8,5-8,12.2-10.6,21.5c-7.3,25.8,3.7,48,7.1,54.3c0.7-3.1,2.1-7.4,4.5-11.9c2.2-4.1,4.8-7.4,6.8-9.6
					c-0.3,13.7,0.9,33.6,8.1,56.1c5.2,16.2,12,29.3,18,39c6-9.7,12.8-22.8,18-39c7.2-22.5,8.3-42.4,8.1-56.1
					c2.1,2.2,4.6,5.5,6.8,9.6c2.4,4.6,3.8,8.7,4.5,11.9c3.4-6.3,14.4-28.5,7.1-54.3C1322.6,485.5,1318.4,478.3,1314.6,473.3
					L1314.6,473.3z"/>
				<path class="st6" d="M1311.2,479.9c3.4,5.2,6,10.8,7.6,16.6c3.8,13.3,2.1,25.7-0.7,35.1c-1.9-3.1-3.9-5.9-6.4-8.6
					c-1.3-1.4-3.1-2.2-4.8-2.2c-0.8,0-1.6,0.2-2.4,0.4c-2.5,1-4.2,3.5-4.1,6.3c0.4,18.4-2.2,36.5-7.8,53.9
					c-3.1,9.6-7,18.9-11.8,27.8c-4.8-8.9-8.7-18.2-11.8-27.8c-5.6-17.4-8.2-35.5-7.8-53.9c0.1-2.8-1.6-5.2-4.1-6.3
					c-0.8-0.4-1.6-0.4-2.4-0.4c-1.8,0-3.6,0.7-4.8,2.2c-2.4,2.7-4.6,5.6-6.4,8.6c-2.8-9.4-4.5-21.9-0.7-35.1
					c1.6-5.8,4.2-11.4,7.6-16.6h30.4H1311.2 M1314.6,473.3c-11.3,0-22.6,0-33.8,0c-11.2,0-22.6,0-33.8,0c-3.8,5-8,12.2-10.6,21.5
					c-7.3,25.8,3.7,48,7.1,54.3c0.7-3.1,2.1-7.4,4.5-11.9c2.2-4.1,4.8-7.4,6.8-9.6c-0.3,13.7,0.9,33.6,8.1,56.1
					c5.2,16.2,12,29.3,18,39c6-9.7,12.8-22.8,18-39c7.2-22.5,8.3-42.4,8.1-56.1c2.1,2.2,4.6,5.5,6.8,9.6c2.4,4.6,3.8,8.7,4.5,11.9
					c3.4-6.3,14.4-28.5,7.1-54.3C1322.6,485.5,1318.4,478.3,1314.6,473.3L1314.6,473.3z"/>
			</g>
			<g>
				
					<linearGradient id="SVGID_1_" gradientUnits="userSpaceOnUse" x1="1280.8647" y1="944.8288" x2="1280.8647" y2="890.5053" gradientTransform="matrix(1 0 0 -1 0 1362.1499)">
					<stop  offset="8.187184e-02" style="stop-color:#401D1B"/>
					<stop  offset="1" style="stop-color:#661311"/>
				</linearGradient>
				<path class="st7" d="M1336.5,436.5c-5.8,4.9-12.7,9.9-20.7,13.9c-13.9,6.9-26.1,8.6-35,8.7c-8.9-0.1-21.1-1.8-35-8.7
					c-8-3.9-14.9-8.9-20.7-13.9c-1.2,6.7-2.3,13.6-3.4,20.3c-1.4,10,3.2,18.4,8.6,20.6c33.8,12.4,67.2,12.4,101.1,0
					c5.4-2.2,10.1-10.6,8.6-20.6C1338.8,450,1337.7,443.3,1336.5,436.5z"/>
				
					<linearGradient id="SVGID_2_" gradientUnits="userSpaceOnUse" x1="1179.5969" y1="1129.2623" x2="1382.0037" y2="1129.2623" gradientTransform="matrix(1 0 0 -1 0 1362.1499)">
					<stop  offset="0" style="stop-color:#FF4240"/>
					<stop  offset="0.176" style="stop-color:#FB413F"/>
					<stop  offset="0.353" style="stop-color:#EF3C3A"/>
					<stop  offset="0.531" style="stop-color:#DB3533"/>
					<stop  offset="0.71" style="stop-color:#BE2A28"/>
					<stop  offset="0.887" style="stop-color:#9A1D1B"/>
					<stop  offset="1" style="stop-color:#7F1311"/>
				</linearGradient>
				<path class="st8" d="M1280.8,465.8c11.4-0.1,27.2-1.3,45.1-6.6c16.9-4.9,30.2-11.8,39.6-17.6c5.4-26.3,11.8-65.4,14.3-113.3
					c3.6-70.1,7.5-147.6-29.7-229.8c-10.9-24-30.2-59.3-65-96.6c-2.3-2.5-6.3-2.5-8.6,0c-34.7,37.2-54,72.6-65,96.6
					c-37.2,82.2-33.3,159.7-29.7,229.8c2.4,47.8,9,86.9,14.3,113.3c9.4,5.7,22.7,12.7,39.6,17.6
					C1253.6,464.5,1269.4,465.7,1280.8,465.8z"/>
				
					<linearGradient id="SVGID_3_" gradientUnits="userSpaceOnUse" x1="1258.7789" y1="1129.1749" x2="1395.8392" y2="1129.1749" gradientTransform="matrix(1 0 0 -1 0 1362.1499)">
					<stop  offset="1.007698e-02" style="stop-color:#9A1D1B"/>
					<stop  offset="1" style="stop-color:#7F1311"/>
				</linearGradient>
				<path class="st9" d="M1350.1,98.7c-10.9-24-30.2-59.3-65-96.6c-1.2-1.3-2.8-1.9-4.3-1.9v465.6l0,0c11.4-0.1,27.2-1.3,45.1-6.6
					c16.9-4.9,30.2-11.8,39.6-17.6c5.4-26.3,11.8-65.4,14.3-113.3C1383.3,258.3,1387.2,180.9,1350.1,98.7z"/>
				
					<linearGradient id="SVGID_4_" gradientUnits="userSpaceOnUse" x1="1224.6027" y1="1152.8323" x2="1328.7288" y2="1055.4694" gradientTransform="matrix(1 0 0 -1 0 1362.1499)">
					<stop  offset="0" style="stop-color:#FF7F40"/>
					<stop  offset="0.5401" style="stop-color:#FB413F"/>
					<stop  offset="1" style="stop-color:#7F1311"/>
				</linearGradient>
				<path class="st10" d="M1179.8,246.7c-0.3,10.1-0.3,20.2-0.1,30.1c67-13.6,135.1-13.6,202,0c0.2-9.9,0.2-19.9-0.1-30.1
					C1314.8,233.7,1246.8,233.7,1179.8,246.7z"/>
				
					<linearGradient id="SVGID_5_" gradientUnits="userSpaceOnUse" x1="1229.1992" y1="1345.1738" x2="1291.0657" y2="1326.9244" gradientTransform="matrix(1 0 0 -1 0 1362.1499)">
					<stop  offset="0" style="stop-color:#FF7F40"/>
					<stop  offset="0.5401" style="stop-color:#FB413F"/>
					<stop  offset="1" style="stop-color:#7F1311"/>
				</linearGradient>
				<path class="st11" d="M1324.1,51.7c-10.1-15.5-23-32.3-39-49.6c-2.3-2.5-6.3-2.5-8.6,0c-16.1,17.2-28.9,34.1-39,49.6
					C1266.2,38.5,1295.3,38.5,1324.1,51.7z"/>
				
					<linearGradient id="SVGID_6_" gradientUnits="userSpaceOnUse" x1="1258.5023" y1="1268.6624" x2="1314.2288" y2="1226.9575" gradientTransform="matrix(1 0 0 -1 0 1362.1499)">
					<stop  offset="0" style="stop-color:#FF7F40"/>
					<stop  offset="0.3513" style="stop-color:#FB463F"/>
					<stop  offset="0.5914" style="stop-color:#FB413F"/>
					<stop  offset="1" style="stop-color:#7F1311"/>
				</linearGradient>
				<circle class="st12" cx="1280.8" cy="110.2" r="34.8"/>
				<circle class="st13" cx="1280.8" cy="110.2" r="30.2"/>
				
					<linearGradient id="SVGID_7_" gradientUnits="userSpaceOnUse" x1="1107.1865" y1="953.2032" x2="1188.5627" y2="953.2032" gradientTransform="matrix(1 0 0 -1 0 1362.1499)">
					<stop  offset="0.4074" style="stop-color:#BE2A28"/>
					<stop  offset="0.887" style="stop-color:#9A1D1B"/>
					<stop  offset="1" style="stop-color:#7F1311"/>
				</linearGradient>
				<path class="st14" d="M1181.8,328.4c-0.6-11.6-1.2-23.3-1.6-35.4c-0.1-0.7-0.1-1.4-0.2-2.1c-16.2,11.8-36.2,30.5-51.2,58.2
					c-4.8,8.7-37.3,71.1-12.2,138.8c3.2,8.7,10.9,28.8,14.5,35.4c3.5,6.1,12.7,4.4,13.7-2.6c1.3-8.8-1.7-28.9-1-34.7
					c3.2-27.3,3.1-37.5,9.2-54.2c7.7-20.6,16.1-26.9,22-29.8c5-2.4,9.9-3.1,13.3-3.4C1185.7,378.2,1183.1,354.6,1181.8,328.4z"/>
				
					<linearGradient id="SVGID_8_" gradientUnits="userSpaceOnUse" x1="1372.8004" y1="953.1532" x2="1454.1428" y2="953.1532" gradientTransform="matrix(1 0 0 -1 0 1362.1499)">
					<stop  offset="0.4074" style="stop-color:#BE2A28"/>
					<stop  offset="0.887" style="stop-color:#9A1D1B"/>
					<stop  offset="1" style="stop-color:#7F1311"/>
				</linearGradient>
				<path class="st15" d="M1432.6,349.2c-15-27.6-35-46.2-51.2-58.2c-0.1,0.7-0.1,1.4-0.2,2.1c-0.4,11.9-1,23.8-1.6,35.4
					c-1.3,26.2-3.9,49.8-6.8,70.1c3.5,0.2,8.3,0.9,13.3,3.4c5.9,2.9,14.3,9.2,22,29.8c6.2,16.7,6.1,27,9.2,54.2
					c0.7,5.8-2.2,25.8-1,34.7c1,7,10.2,8.7,13.7,2.6c3.8-6.5,11.4-26.7,14.5-35.4C1470,420.2,1437.4,357.9,1432.6,349.2z"/>
				<path class="st16" d="M1259.6,131.8c2.5-22.4,20.9-40.1,43.7-41.6c-5.6-6.2-13.6-10.1-22.5-10.1c-16.7,0-30.2,13.6-30.2,30.2
					C1250.5,118.7,1254,126.3,1259.6,131.8z"/>
				
					<linearGradient id="SVGID_9_" gradientUnits="userSpaceOnUse" x1="1266.3571" y1="1181.9838" x2="1302.4319" y2="1154.9862" gradientTransform="matrix(1 0 0 -1 0 1362.1499)">
					<stop  offset="0" style="stop-color:#FF7F40"/>
					<stop  offset="0.3513" style="stop-color:#FB463F"/>
					<stop  offset="0.5914" style="stop-color:#FB413F"/>
					<stop  offset="1" style="stop-color:#7F1311"/>
				</linearGradient>
				<circle class="st17" cx="1280.8" cy="191" r="22.5"/>
				<circle class="st13" cx="1280.8" cy="191" r="19.6"/>
				<path class="st16" d="M1267,204.9c1.6-14.5,13.6-25.9,28.3-26.9c-3.6-4-8.8-6.6-14.5-6.6c-10.8,0-19.6,8.7-19.6,19.6
					C1261.2,196.5,1263.5,201.4,1267,204.9z"/>
				<path class="st18" d="M1278.5,6.8c-7.8,10.1-15.6,20-23.4,30.1c3.9-0.7,7.8-1.4,11.8-2.2C1270.7,25.4,1274.7,16.1,1278.5,6.8z"
					/>
				<path class="st19" d="M1331.3,92.6c8.3,15.2,19,38.3,26.4,68.1c6,24.5,7,42.8,8.8,77.7c0.6,13.3,2.2,48.2,0,96.8
					c-1.2,27-3.7,61-8.8,100.4c-3.9,1-7.8,2-11.8,3c5.2-53.9,6.9-99.6,7.4-134.1c0.5-45.5,0.9-80.1-5.1-126.1
					C1343.5,142.5,1336.8,113,1331.3,92.6z"/>
				<path class="st18" d="M1228.7,89c-8.3,15.2-19,38.3-26.4,68.1c-6,24.5-7,42.8-8.8,77.7c-0.6,13.3-2.2,48.2,0,96.8
					c1.2,27,3.7,61,8.8,100.4c3.9,1,7.8,2,11.8,3c-5.2-53.9-6.9-99.6-7.4-134.1c-0.5-45.5-0.9-80.1,5.1-126.1
					C1216.5,138.8,1223.3,109.3,1228.7,89z"/>
				
					<linearGradient id="SVGID_10_" gradientUnits="userSpaceOnUse" x1="1269.6027" y1="981.1342" x2="1299.7916" y2="889.1544" gradientTransform="matrix(1 0 0 -1 0 1362.1499)">
					<stop  offset="0" style="stop-color:#FF7F40"/>
					<stop  offset="0.5401" style="stop-color:#FB413F"/>
					<stop  offset="1" style="stop-color:#7F1311"/>
				</linearGradient>
				<path class="st20" d="M1325.8,459.3c16.9-4.9,30.2-11.8,39.6-17.6c2-9.8,4.1-21.4,6.2-34.5c-60.2,21.9-121.4,21.9-181.7,0
					c2.1,13.1,4.2,24.7,6.2,34.5c9.4,5.7,22.7,12.7,39.6,17.6c17.9,5.2,33.7,6.6,45.1,6.6C1292.2,465.7,1308,464.5,1325.8,459.3z"/>
				
					<linearGradient id="SVGID_11_" gradientUnits="userSpaceOnUse" x1="1266.3168" y1="953.1749" x2="1295.2013" y2="953.1749" gradientTransform="matrix(1 0 0 -1 0 1362.1499)">
					<stop  offset="0.4074" style="stop-color:#BE2A28"/>
					<stop  offset="0.887" style="stop-color:#9A1D1B"/>
					<stop  offset="1" style="stop-color:#7F1311"/>
				</linearGradient>
				<path class="st21" d="M1280.8,527L1280.8,527c8.1,0,7.3-6.6,7.3-14.7l7.1-200c0.2-4.9-1.4-9.8-4.6-13.6l-4-5
					c-3-3.6-8.5-3.6-11.5,0l-4.1,5c-3.1,3.8-4.8,8.6-4.6,13.6l6.4,200.1C1272.7,520.4,1272.7,527,1280.8,527z"/>
				<path class="st18" d="M1280.8,298.5c-1.5,73.8-3.1,110.7-4.4,110.7s-2.5-32.5-3.7-97.5C1275.4,307.3,1278.1,302.9,1280.8,298.5z
					"/>
				<path class="st18" d="M1160.4,320.5c-14.5,17.9-23.2,34.7-28.5,46.9c-4.9,11.3-11.5,26.7-13.9,48.4c-0.8,7.4-2.1,23.4,1.4,43.3
					c1.8,10.1,4.3,18.6,6.6,25c-3.8-35.1,1.2-61.4,5.1-76.2c5-18.9,12.7-35.8,15.3-41.7c5.3-11.5,10.5-20.9,14.6-27.8
					C1160.9,332.3,1160.7,326.5,1160.4,320.5z"/>
				<path class="st19" d="M1401.1,320.5c14.5,17.9,23.2,34.7,28.5,46.9c4.9,11.3,11.5,26.7,13.9,48.4c0.8,7.4,2.1,23.4-1.4,43.3
					c-1.8,10.1-4.3,18.6-6.6,25c3.8-35.1-1.2-61.4-5.1-76.2c-5-18.9-12.7-35.8-15.3-41.7c-5.3-11.5-10.5-20.9-14.6-27.8
					C1400.6,332.3,1400.9,326.5,1401.1,320.5z"/>
			</g>
		</g>
	</g>
</g>
</svg>
