<svg version="1.1"
	 xmlns="http://www.w3.org/2000/svg" xmlns:xlink="http://www.w3.org/1999/xlink" xmlns:a="http://ns.adobe.com/AdobeSVGViewerExtensions/3.0/"
	 x="0px" y="0px" width="1920px" height="536.2px" viewBox="0 0 1920 536.2" style="enable-background:new 0 0 1920 536.2;"
	 xml:space="preserve">
<style type="text/css">
	.st0{fill:url(#SVGID_1_);}
	.st1{opacity:0.8;fill:url(#SVGID_2_);}
	.st2{fill:url(#SVGID_3_);}
	.st3{fill:url(#SVGID_4_);}
	.st4{opacity:0.8;fill:url(#SVGID_5_);}
	.st5{fill:url(#SVGID_6_);}
</style>
<defs>
</defs>
<g>
	<linearGradient id="SVGID_1_" gradientUnits="userSpaceOnUse" x1="960" y1="357.258" x2="960" y2="0">
		<stop  offset="0.5189" style="stop-color:#1E2B40"/>
		<stop  offset="0.6395" style="stop-color:#1C283C"/>
		<stop  offset="0.7597" style="stop-color:#172030"/>
		<stop  offset="0.8798" style="stop-color:#0D131C"/>
		<stop  offset="0.9992" style="stop-color:#000000"/>
		<stop  offset="1" style="stop-color:#000000"/>
	</linearGradient>
	<path class="st0" d="M1920,357.3H610v0H0V69.5c49.3-16.6,98.6,3,98.6,3S117.9,12.6,199.8,25s74.9,84.2,74.9,84.2
		C308.4,94.9,345,117,345,117c90.9-40.9,128.5,31.4,128.5,31.4c99.9-26.7,115.2,64.7,115.2,64.7c19.3-1.2,21.3,12.5,21.3,12.5v0.4
		c11.6-13.8,47.7-45.8,113.8-15.2c0,0-3.1-60.7,62.1-71.5s98.6,29.8,98.6,29.8s97.3-196.6,288.8-73.9c0,0,38.7-88.6,122.3-88
		c83.6,0.6,131.3,62.5,133.2,63.1s76-32.7,136.2,20.8c0,0,33.9-12.5,48.3,0c0,0,39.1-86.8,136.9-39.3c0,0,6.3-51.2,67.8-51.8
		c61.5-0.6,65.3,45.8,65.3,45.8s22.3-6.3,36.7,4.7V357.3z"/>
	<linearGradient id="SVGID_2_" gradientUnits="userSpaceOnUse" x1="960" y1="357.2579" x2="960" y2="100.382">
		<stop  offset="0" style="stop-color:#304466"/>
		<stop  offset="0.3116" style="stop-color:#2E4161"/>
		<stop  offset="0.6738" style="stop-color:#273853"/>
		<stop  offset="1" style="stop-color:#1E2B40"/>
	</linearGradient>
	<path class="st1" d="M1773.1,159.2c-15.1-12.2-41.4,4.9-41.4,4.9c-28.2-41.4-74.4-19.5-74.4-19.5c-86.6-61-129.9,25.2-129.9,25.2
		c-65.9-25.2-98.9,30.1-98.9,30.1c-8.5-49.6-70.6-30.1-70.6-30.1c-59.3-35.8-99.3,9.4-99.3,9.4c-72.7-62.8-148.3,3.1-148.3,3.1
		s-20.1-10.3-55.9,7.6c0,0-28.9-47.7-81-41.2c-52.1,6.5-77.8,39-77.8,39s-47.1-46.1-101.7-21.7c-54.6,24.4-57.8,67.2-57.8,67.2
		s-48.4-5.1-71.7,36.8c-29.8-42.2-92.9-37.1-92.9-37.1s-4-42.1-74.3-66s-130.8,21.3-130.8,21.3s-33.1-31.9-100.1-38.3
		c-67-6.4-104.1,40.5-104.1,40.5c-46-17.6-71.8-7.5-71.8-7.5C40.4,109.5,0,114.2,0,114.2v243h662.7v0h517.9H1920V103.9
		C1806.3,83.3,1773.1,159.2,1773.1,159.2z"/>
	<linearGradient id="SVGID_3_" gradientUnits="userSpaceOnUse" x1="960" y1="536.2354" x2="960" y2="249.5415">
		<stop  offset="0" style="stop-color:#FFFFFF"/>
		<stop  offset="0.1082" style="stop-color:#F9FAFB"/>
		<stop  offset="0.2498" style="stop-color:#E9EBEF"/>
		<stop  offset="0.4102" style="stop-color:#CED2DB"/>
		<stop  offset="0.5841" style="stop-color:#A8B0BF"/>
		<stop  offset="0.7691" style="stop-color:#77849B"/>
		<stop  offset="0.9607" style="stop-color:#3D5070"/>
		<stop  offset="1" style="stop-color:#304466"/>
	</linearGradient>
	<path class="st2" d="M0,536.2h1920v-179v0V251.5c-0.7,0.3-1.5,0.6-2.2,0.9c-27.3,12.5-18.2,34.7-18.2,34.7s-34.5-4.7-45.5,34.5
		c0,0-38.1-13.3-65.9,8.8c0,0-27.3-19.8-47.1-6.6c0,0,4.9-28.2-18.8-38.8c-23.8-10.6-33.9,0.2-33.9,0.2s-12.7-23.5-35.8-10.4
		c-23.1-13.2-35.8,10.4-35.8,10.4s-10.1-10.8-33.9-0.2c-23.8,10.6-18.8,38.8-18.8,38.8c-19.8-13.2-47.1,6.6-47.1,6.6
		c-27.8-22.1-65.9-8.8-65.9-8.8c-11-39.2-45.5-34.5-45.5-34.5s9.1-22.3-18.2-34.7s-40.2,19.1-40.2,19.1
		c-63.4-23.2-102.6,27-102.6,27c-35.2-51.8-91.7-20.4-91.7-20.4c-12.9-38.9-51.2-22-51.2-22s-38.3-16.9-51.2,22
		c0,0-56.5-31.4-91.7,20.4c0,0-39.2-50.2-102.6-27c0,0-12.9-31.5-40.2-19.1c-27.3,12.5-18.2,34.7-18.2,34.7s-34.5-4.7-45.5,34.5
		c0,0-38.1-13.3-65.9,8.8c0,0-27.3-19.8-47.1-6.6c0,0,4.9-28.2-18.8-38.8c-23.8-10.6-33.9,0.2-33.9,0.2s-12.7-23.5-35.8-10.4
		c-23.1-13.2-35.8,10.4-35.8,10.4s-10.1-10.8-33.9-0.2c-23.8,10.6-18.8,38.8-18.8,38.8c-19.8-13.2-47.1,6.6-47.1,6.6
		c-27.8-22.1-65.9-8.8-65.9-8.8c-11-39.2-45.5-34.5-45.5-34.5s9.1-22.3-18.2-34.7s-40.2,19.1-40.2,19.1
		c-63.4-23.2-102.6,27-102.6,27c-35.2-51.8-91.7-20.4-91.7-20.4c-12.9-38.9-51.2-22-51.2-22v101.1v0V536.2"/>
</g>
</svg>
