<svg xmlns="http://www.w3.org/2000/svg" width="260.5" height="1234.2"><style/><linearGradient id="SVGID_1_" gradientUnits="userSpaceOnUse" x1="386.394" y1="480.981" x2="456.291" y2="58.35" gradientTransform="matrix(.9862 -.1503 .1631 .9526 -372.572 479.179)"><stop offset="0" stop-color="#fff" stop-opacity="0"/><stop offset=".172" stop-color="#c6effa" stop-opacity=".172"/><stop offset=".397" stop-color="#82dcf4" stop-opacity=".397"/><stop offset=".6" stop-color="#4ccdef" stop-opacity=".6"/><stop offset=".775" stop-color="#25c2ec" stop-opacity=".775"/><stop offset=".914" stop-color="#0ebbea" stop-opacity=".914"/><stop offset="1" stop-color="#05b9e9"/></linearGradient><path d="M65.9 879.1c8.4.9 15.9-5.3 16.8-13.7l38.9-380.8c.9-8.4-5.3-15.9-13.7-16.8l-2.2-1.6-53.5 396c-.8 8.5 5.3 16 13.7 16.9z" fill="url(#SVGID_1_)"/><linearGradient id="SVGID_2_" gradientUnits="userSpaceOnUse" x1="389.175" y1="560.789" x2="456.531" y2="139.377" gradientTransform="matrix(.9876 -.1641 .1579 1.0039 -364.773 402.91)"><stop offset="0" stop-color="#fff" stop-opacity="0"/><stop offset=".172" stop-color="#c6effa" stop-opacity=".172"/><stop offset=".397" stop-color="#82dcf4" stop-opacity=".397"/><stop offset=".6" stop-color="#4ccdef" stop-opacity=".6"/><stop offset=".775" stop-color="#25c2ec" stop-opacity=".775"/><stop offset=".914" stop-color="#0ebbea" stop-opacity=".914"/><stop offset="1" stop-color="#05b9e9"/></linearGradient><path d="M88.3 901.4l6.4.7c6.7.7 12.8-6.1 13.5-15l29.7-402.4c.7-8.5 1.4-15.8-4.9-16.7-6.7-1-12.9 5.7-13.9 14.6L78 884.3c-.9 8.8 3.7 16.4 10.3 17.1z" fill="url(#SVGID_2_)"/><linearGradient id="SVGID_3_" gradientUnits="userSpaceOnUse" x1="241.203" y1="1143.242" x2="277.166" y2="717.583" gradientTransform="matrix(1.0072 -.355 .0851 1.7155 -257.484 -646.18)"><stop offset="0" stop-color="#fff" stop-opacity="0"/><stop offset=".172" stop-color="#c6effa" stop-opacity=".172"/><stop offset=".397" stop-color="#82dcf4" stop-opacity=".397"/><stop offset=".6" stop-color="#4ccdef" stop-opacity=".6"/><stop offset=".775" stop-color="#25c2ec" stop-opacity=".775"/><stop offset=".914" stop-color="#0ebbea" stop-opacity=".914"/><stop offset="1" stop-color="#05b9e9"/></linearGradient><path fill="url(#SVGID_3_)" d="M29.2 1231.1l30.4 3.1 76.7-749.9-31-2.6z"/><linearGradient id="SVGID_4_" gradientUnits="userSpaceOnUse" y1="422.779" x2="83.943" y2="422.779"><stop offset="0" stop-color="#ff4240"/><stop offset=".176" stop-color="#fb413f"/><stop offset=".353" stop-color="#ef3c3a"/><stop offset=".531" stop-color="#db3533"/><stop offset=".71" stop-color="#be2a28"/><stop offset=".887" stop-color="#9a1d1b"/><stop offset="1" stop-color="#7f1311"/></linearGradient><path d="M49.4 354.4s-31.5-11.6-46.7 26.3c0 0-4.9 57.5-1.6 112.2l82.8-92.4-34.5-46.1z" fill="url(#SVGID_4_)"/><linearGradient id="SVGID_5_" gradientUnits="userSpaceOnUse" x1="176.984" y1="445.849" x2="260.523" y2="445.849"><stop offset="0" stop-color="#ff4240"/><stop offset=".176" stop-color="#fb413f"/><stop offset=".353" stop-color="#ef3c3a"/><stop offset=".531" stop-color="#db3533"/><stop offset=".71" stop-color="#be2a28"/><stop offset=".887" stop-color="#9a1d1b"/><stop offset="1" stop-color="#7f1311"/></linearGradient><path d="M220.3 373.2s33.2-4.9 40.2 35.4c0 0-7.1 57.3-21.6 110.1L177 411.2l43.3-38z" fill="url(#SVGID_5_)"/><linearGradient id="SVGID_6_" gradientUnits="userSpaceOnUse" x1="85.569" y1="69.461" x2="237.21" y2="69.461"><stop offset="0" stop-color="#ff4240"/><stop offset=".176" stop-color="#fb413f"/><stop offset=".353" stop-color="#ef3c3a"/><stop offset=".531" stop-color="#db3533"/><stop offset=".71" stop-color="#be2a28"/><stop offset=".887" stop-color="#9a1d1b"/><stop offset="1" stop-color="#7f1311"/></linearGradient><path d="M173.7 0s-48.3 36.9-88.1 115.8c14.4 8.2 40.8 19.9 77 22.6 14.9 1.1 31.4.7 49.4-2.2 8.1-1.3 16.5-3 25.2-5.3C213.7 50.7 173.7 0 173.7 0z" fill="url(#SVGID_6_)"/><linearGradient id="SVGID_7_" gradientUnits="userSpaceOnUse" x1="42.474" y1="294.839" x2="253.967" y2="294.839"><stop offset=".005" stop-color="#e86046"/><stop offset=".251" stop-color="#e65c43"/><stop offset=".499" stop-color="#e1503c"/><stop offset=".748" stop-color="#d83c2f"/><stop offset=".996" stop-color="#cc1f1c"/><stop offset="1" stop-color="#cc1f1c"/></linearGradient><path d="M237.2 130.9c-8.7 2.3-17.1 4.1-25.2 5.3-18 2.8-34.6 3.3-49.4 2.2-36.2-2.7-62.5-14.4-77-22.6-16.7 33.1-32 73.7-41.6 122 0 0-15.9 152.5 55.8 226l36.1 7.3 13.9 2.8c97.8-80 104.1-216.7 104.1-216.7 1.4-46.9-5.9-89.7-16.7-126.3z" fill="url(#SVGID_7_)"/><ellipse transform="rotate(-9.177 149.038 217.726)" cx="149" cy="217.8" rx="42.4" ry="42.4" fill="#cc1f1c"/><ellipse transform="rotate(-9.177 149.004 218.572)" cx="149" cy="218.6" rx="33.8" ry="33.8" fill="#fff"/><linearGradient id="SVGID_8_" gradientUnits="userSpaceOnUse" x1="90.711" y1="470.958" x2="153.863" y2="470.958"><stop offset="0" stop-color="#ff4240"/><stop offset=".176" stop-color="#fb413f"/><stop offset=".353" stop-color="#ef3c3a"/><stop offset=".531" stop-color="#db3533"/><stop offset=".71" stop-color="#be2a28"/><stop offset=".887" stop-color="#9a1d1b"/><stop offset="1" stop-color="#7f1311"/></linearGradient><path d="M143 485.1l-43.5-3.7c-5.3-.4-9.2-5.1-8.8-10.4l.5-5.4c.4-5.3 5.1-9.2 10.4-8.8l43.5 3.7c5.3.4 9.2 5.1 8.8 10.4l-.5 5.4c-.5 5.3-5.1 9.2-10.4 8.8z" fill="url(#SVGID_8_)"/></svg>