<svg xmlns="http://www.w3.org/2000/svg" width="1920.2" height="987.4" overflow="scroll"><style>.st13{fill:#4ec1ff}.st16,.st18,.st19{opacity:.4;fill:#c0ecff;enable-background:new}.st18,.st19{opacity:.29;fill:#ffd24b}.st19{fill:#6d210c}</style><path d="M1920.2 256.8c-56.4 6.2-100.5 52.9-102.5 110.5-5.8-3.1-12.3-4.9-19.3-4.9-19.8 0-36.2 14.1-39.9 32.7-9.4-2.6-19.4-4-29.7-4-60.9 0-110.3 49.4-110.3 110.3 0 2 .1 4 .2 6-26.2 4.7-46.2 27.6-46.2 55.1 0 1.5.1 3 .2 4.5-47.6 6.7-84.2 47.6-84.2 97 0 2.7.1 5.3.3 7.9-29.1 12.3-42.1 37.2-42.1 37.2-99.9-26.7-115.2 64.7-115.2 64.7-19.3-1.2-21.3 12.5-21.3 12.5v.4c-11.6-13.8-47.7-45.8-113.8-15.2 0 0 3.1-60.7-62.1-71.5s-98.6 29.8-98.6 29.8-97.3-196.6-288.8-73.9c0 0-38.7-88.6-122.3-88S493.3 630.4 491.4 631c-1.9.6-76-32.7-136.2 20.8 0 0-33.9-12.5-48.3 0 0 0-39.1-86.8-136.9-39.3 0 0-6.3-51.2-67.8-51.8s-65.3 45.8-65.3 45.8-22.3-6.3-36.7 4.7v306.9h1920V256.8z" fill="#31547a"/><path d="M1819.4 509c-6.2-1.5-12.7-2.4-19.3-2.4-44.2 0-80 35.8-80 80 0 .8 0 1.5.1 2.3-51.1 9.5-92.1 47.9-105.4 97.5-9.4-4.8-20.1-7.5-31.4-7.5-38.2 0-69.3 31-69.3 69.3v.4c-23.9-8.2-56.3-13.4-91.2-1.5-70.3 23.9-74.3 66-74.3 66s-63.1-5.1-92.9 37.1c-23.3-41.9-71.7-36.8-71.7-36.8s-3.2-42.8-57.8-67.2c-54.6-24.4-101.7 21.7-101.7 21.7s-25.7-32.5-77.8-39-81 41.2-81 41.2c-35.8-17.9-55.9-7.6-55.9-7.6s-75.6-65.9-148.3-3.1c0 0-40-45.2-99.3-9.4 0 0-62.1-19.5-70.6 30.1 0 0-33-55.3-98.9-30.1 0 0-43.3-86.2-129.9-25.2 0 0-46.2-21.9-74.4 19.5 0 0-26.3-17.1-41.4-4.9 0 0-33.2-75.9-146.9-55.3v253.3h1920l.1-516.9c-49.2 5.4-89.3 41.4-100.8 88.5z" fill="#cedadd"/><path d="M1920.2 605.1c-4.7-2.2-10-3.4-15.5-3.4-13.5 0-25.4 7.3-31.8 18.1-6.2-4.8-14.1-7.7-22.6-7.7-11.9 0-22.6 5.7-29.3 14.5-5.4-6.9-13.6-11.5-23.1-12-17.4-1-32.3 12.4-33.3 29.8-.3 5.3.7 10.3 2.8 14.8-1.2-.2-2.4-.3-3.6-.4-17.4-1-32.3 12.4-33.3 29.8-.3 5.6.9 11 3.2 15.7-2.8-.7-5.7-1-8.7-1-14 0-26.1 7.7-32.4 19.2-4.3-1.7-9-2.7-13.9-2.7-20.4 0-37 16.6-37 37 0 8.3 2.7 16 7.3 22.1-1.8-.4-3.7-.7-5.6-.8-13.2-.7-24.9 6.7-30.3 17.9-5.1-4.6-11.8-7.5-19.2-7.9-17.4-1-32.3 12.4-33.3 29.8-.4 6.6 1.3 12.8 4.5 18-13.1 3.6-23.4 14.3-26.3 27.7h-.9c-20.4 0-37 16.6-37 37 0 2.8.3 5.6.9 8.3-7.6-4.6-28.3-15.2-44.1-4.7 0 0 5-28.2-18.8-38.8s-33.9.2-33.9.2-12.7-23.6-35.8-10.4c-23.1-13.1-35.8 10.4-35.8 10.4s-10.1-10.8-33.9-.2c-23.7 10.6-18.8 38.8-18.8 38.8-19.8-13.2-47.1 6.6-47.1 6.6-27.8-22.1-65.9-8.8-65.9-8.8-11-39.2-45.5-34.5-45.5-34.5s9.1-22.2-18.2-34.7c-27.3-12.4-40.2 19.1-40.2 19.1-63.4-23.2-102.6 27-102.6 27-35.2-51.8-91.7-20.4-91.7-20.4-12.9-38.9-51.2-22-51.2-22s-38.3-16.9-51.2 22c0 0-56.5-31.4-91.7 20.4 0 0-39.2-50.2-102.6-27 0 0-12.9-31.5-40.2-19.1s-18.2 34.7-18.2 34.7-34.5-4.7-45.5 34.5c0 0-38.1-13.3-65.9 8.8 0 0-27.3-19.8-47.1-6.6 0 0 5-28.2-18.8-38.8-23.8-10.6-33.9.2-33.9.2s-12.7-23.6-35.8-10.4c-23.1-13.1-35.8 10.4-35.8 10.4s-10.1-10.8-33.9-.2c-23.7 10.6-18.8 38.8-18.8 38.8-19.8-13.2-47.1 6.6-47.1 6.6-27.8-22.1-65.9-8.8-65.9-8.8-11-39.2-45.5-34.5-45.5-34.5s9.1-22.2-18.2-34.7c-.7-.3-1.5-.6-2.2-.9v155.5h1920.1V605.1h.1z" fill="#fff"/><path d="M1454.2 987.2h-356.8c21.4-41.6 42.3-87.4 61.5-137.4 53.6-139.7 77.1-269 86.7-374.6h70.4c4.3 102.7 22.4 234.9 77.3 378.3 18.7 49.3 39.6 93.8 60.9 133.7z" opacity=".5" fill="#fff"/><path d="M1280.8 611.1c-5.1-9.3-9.2-19.1-12.5-29.2-5.6-17.5-8.2-35.7-7.8-54.2.1-2.4-1.4-4.7-3.7-5.6-.7-.3-1.4-.4-2.2-.4-1.6 0-3.2.6-4.3 1.9-2.8 3.1-5.1 6.4-7.2 10-3.1-9.7-5.2-23-1.2-37.2 1.7-6 4.4-11.8 8-17.1h61.7c3.6 5.4 6.3 11.1 8 17.1 4 14.2 1.9 27.5-1.2 37.2-2-3.6-4.4-6.9-7.2-10-1.2-1.3-2.7-1.9-4.3-1.9-.7 0-1.4.2-2.2.4-2.2.9-3.8 3.1-3.7 5.6.4 18.5-2.2 36.7-7.8 54.2-3.2 10-7.4 19.8-12.4 29.2z" fill="#ff9700"/><path d="M1308.3 485c2.4 4.1 4.3 8.4 5.6 12.9 2.2 7.6 2.3 15 1.5 21.6-2.2-2.4-5.4-3.8-8.6-3.8-1.4 0-3 .3-4.3.8-4.6 1.8-7.4 6.3-7.4 11.1.4 17.9-2.2 35.5-7.5 52.3-2 6.1-4.2 12-6.9 17.9-2.6-5.8-4.9-11.8-6.9-17.9-5.4-16.9-7.9-34.5-7.5-52.3.1-4.8-2.9-9.3-7.4-11.1-1.4-.5-2.9-.8-4.3-.8-3.2 0-6.4 1.3-8.6 3.8-.8-6.6-.6-13.9 1.5-21.6 1.3-4.5 3.1-8.8 5.6-12.9h55.2m6.3-11.7H1247c-3.8 5-8 12.2-10.6 21.5-7.3 25.8 3.7 48 7.1 54.3.7-3.1 2.1-7.4 4.5-11.9 2.2-4.1 4.8-7.4 6.8-9.6-.3 13.7.9 33.6 8.1 56.1 5.2 16.2 12 29.3 18 39 6-9.7 12.8-22.8 18-39 7.2-22.5 8.3-42.4 8.1-56.1 2.1 2.2 4.6 5.5 6.8 9.6 2.4 4.6 3.8 8.7 4.5 11.9 3.4-6.3 14.4-28.5 7.1-54.3-2.8-9.3-7-16.5-10.8-21.5z" fill="#f15a24"/><path d="M1311.2 479.9c3.4 5.2 6 10.8 7.6 16.6 3.8 13.3 2.1 25.7-.7 35.1-1.9-3.1-3.9-5.9-6.4-8.6-1.3-1.4-3.1-2.2-4.8-2.2-.8 0-1.6.2-2.4.4-2.5 1-4.2 3.5-4.1 6.3.4 18.4-2.2 36.5-7.8 53.9-3.1 9.6-7 18.9-11.8 27.8-4.8-8.9-8.7-18.2-11.8-27.8-5.6-17.4-8.2-35.5-7.8-53.9.1-2.8-1.6-5.2-4.1-6.3-.8-.4-1.6-.4-2.4-.4-1.8 0-3.6.7-4.8 2.2-2.4 2.7-4.6 5.6-6.4 8.6-2.8-9.4-4.5-21.9-.7-35.1 1.6-5.8 4.2-11.4 7.6-16.6h60.8m3.4-6.6H1247c-3.8 5-8 12.2-10.6 21.5-7.3 25.8 3.7 48 7.1 54.3.7-3.1 2.1-7.4 4.5-11.9 2.2-4.1 4.8-7.4 6.8-9.6-.3 13.7.9 33.6 8.1 56.1 5.2 16.2 12 29.3 18 39 6-9.7 12.8-22.8 18-39 7.2-22.5 8.3-42.4 8.1-56.1 2.1 2.2 4.6 5.5 6.8 9.6 2.4 4.6 3.8 8.7 4.5 11.9 3.4-6.3 14.4-28.5 7.1-54.3-2.8-9.3-7-16.5-10.8-21.5z" fill="#fcee21"/><linearGradient id="SVGID_1_" gradientUnits="userSpaceOnUse" x1="1280.865" y1="944.829" x2="1280.865" y2="890.505" gradientTransform="matrix(1 0 0 -1 0 1362.15)"><stop offset=".082" stop-color="#401d1b"/><stop offset="1" stop-color="#661311"/></linearGradient><path d="M1336.5 436.5c-5.8 4.9-12.7 9.9-20.7 13.9-13.9 6.9-26.1 8.6-35 8.7-8.9-.1-21.1-1.8-35-8.7-8-3.9-14.9-8.9-20.7-13.9-1.2 6.7-2.3 13.6-3.4 20.3-1.4 10 3.2 18.4 8.6 20.6 33.8 12.4 67.2 12.4 101.1 0 5.4-2.2 10.1-10.6 8.6-20.6-1.2-6.8-2.3-13.5-3.5-20.3z" fill="url(#SVGID_1_)"/><linearGradient id="SVGID_2_" gradientUnits="userSpaceOnUse" x1="1179.597" y1="1129.262" x2="1382.004" y2="1129.262" gradientTransform="matrix(1 0 0 -1 0 1362.15)"><stop offset="0" stop-color="#ff4240"/><stop offset=".176" stop-color="#fb413f"/><stop offset=".353" stop-color="#ef3c3a"/><stop offset=".531" stop-color="#db3533"/><stop offset=".71" stop-color="#be2a28"/><stop offset=".887" stop-color="#9a1d1b"/><stop offset="1" stop-color="#7f1311"/></linearGradient><path d="M1280.8 465.8c11.4-.1 27.2-1.3 45.1-6.6 16.9-4.9 30.2-11.8 39.6-17.6 5.4-26.3 11.8-65.4 14.3-113.3 3.6-70.1 7.5-147.6-29.7-229.8-10.9-24-30.2-59.3-65-96.6-2.3-2.5-6.3-2.5-8.6 0-34.7 37.2-54 72.6-65 96.6-37.2 82.2-33.3 159.7-29.7 229.8 2.4 47.8 9 86.9 14.3 113.3 9.4 5.7 22.7 12.7 39.6 17.6 17.9 5.3 33.7 6.5 45.1 6.6z" fill="url(#SVGID_2_)"/><linearGradient id="SVGID_3_" gradientUnits="userSpaceOnUse" x1="1258.779" y1="1129.175" x2="1395.839" y2="1129.175" gradientTransform="matrix(1 0 0 -1 0 1362.15)"><stop offset=".01" stop-color="#9a1d1b"/><stop offset="1" stop-color="#7f1311"/></linearGradient><path d="M1350.1 98.7c-10.9-24-30.2-59.3-65-96.6a5.86 5.86 0 0 0-4.3-1.9v465.6c11.4-.1 27.2-1.3 45.1-6.6 16.9-4.9 30.2-11.8 39.6-17.6 5.4-26.3 11.8-65.4 14.3-113.3 3.5-70 7.4-147.4-29.7-229.6z" opacity=".47" fill="url(#SVGID_3_)"/><linearGradient id="SVGID_4_" gradientUnits="userSpaceOnUse" x1="1224.603" y1="1152.832" x2="1328.729" y2="1055.469" gradientTransform="matrix(1 0 0 -1 0 1362.15)"><stop offset="0" stop-color="#ff7f40"/><stop offset=".54" stop-color="#fb413f"/><stop offset="1" stop-color="#7f1311"/></linearGradient><path d="M1179.8 246.7c-.3 10.1-.3 20.2-.1 30.1 67-13.6 135.1-13.6 202 0 .2-9.9.2-19.9-.1-30.1-66.8-13-134.8-13-201.8 0z" fill="url(#SVGID_4_)"/><linearGradient id="SVGID_5_" gradientUnits="userSpaceOnUse" x1="1229.199" y1="1345.174" x2="1291.066" y2="1326.924" gradientTransform="matrix(1 0 0 -1 0 1362.15)"><stop offset="0" stop-color="#ff7f40"/><stop offset=".54" stop-color="#fb413f"/><stop offset="1" stop-color="#7f1311"/></linearGradient><path d="M1324.1 51.7c-10.1-15.5-23-32.3-39-49.6-2.3-2.5-6.3-2.5-8.6 0-16.1 17.2-28.9 34.1-39 49.6 28.7-13.2 57.8-13.2 86.6 0z" fill="url(#SVGID_5_)"/><linearGradient id="SVGID_6_" gradientUnits="userSpaceOnUse" x1="1258.502" y1="1268.662" x2="1314.229" y2="1226.957" gradientTransform="matrix(1 0 0 -1 0 1362.15)"><stop offset="0" stop-color="#ff7f40"/><stop offset=".351" stop-color="#fb463f"/><stop offset=".591" stop-color="#fb413f"/><stop offset="1" stop-color="#7f1311"/></linearGradient><circle cx="1280.8" cy="110.2" r="34.8" fill="url(#SVGID_6_)"/><circle class="st13" cx="1280.8" cy="110.2" r="30.2"/><linearGradient id="SVGID_7_" gradientUnits="userSpaceOnUse" x1="1107.187" y1="953.203" x2="1188.563" y2="953.203" gradientTransform="matrix(1 0 0 -1 0 1362.15)"><stop offset=".407" stop-color="#be2a28"/><stop offset=".887" stop-color="#9a1d1b"/><stop offset="1" stop-color="#7f1311"/></linearGradient><path d="M1181.8 328.4c-.6-11.6-1.2-23.3-1.6-35.4-.1-.7-.1-1.4-.2-2.1-16.2 11.8-36.2 30.5-51.2 58.2-4.8 8.7-37.3 71.1-12.2 138.8 3.2 8.7 10.9 28.8 14.5 35.4 3.5 6.1 12.7 4.4 13.7-2.6 1.3-8.8-1.7-28.9-1-34.7 3.2-27.3 3.1-37.5 9.2-54.2 7.7-20.6 16.1-26.9 22-29.8 5-2.4 9.9-3.1 13.3-3.4-2.6-20.4-5.2-44-6.5-70.2z" fill="url(#SVGID_7_)"/><linearGradient id="SVGID_8_" gradientUnits="userSpaceOnUse" x1="1372.8" y1="953.153" x2="1454.143" y2="953.153" gradientTransform="matrix(1 0 0 -1 0 1362.15)"><stop offset=".407" stop-color="#be2a28"/><stop offset=".887" stop-color="#9a1d1b"/><stop offset="1" stop-color="#7f1311"/></linearGradient><path d="M1432.6 349.2c-15-27.6-35-46.2-51.2-58.2-.1.7-.1 1.4-.2 2.1-.4 11.9-1 23.8-1.6 35.4-1.3 26.2-3.9 49.8-6.8 70.1 3.5.2 8.3.9 13.3 3.4 5.9 2.9 14.3 9.2 22 29.8 6.2 16.7 6.1 27 9.2 54.2.7 5.8-2.2 25.8-1 34.7 1 7 10.2 8.7 13.7 2.6 3.8-6.5 11.4-26.7 14.5-35.4 25.5-67.7-7.1-130-11.9-138.7z" fill="url(#SVGID_8_)"/><path class="st16" d="M1259.6 131.8c2.5-22.4 20.9-40.1 43.7-41.6-5.6-6.2-13.6-10.1-22.5-10.1-16.7 0-30.2 13.6-30.2 30.2-.1 8.4 3.4 16 9 21.5z"/><linearGradient id="SVGID_9_" gradientUnits="userSpaceOnUse" x1="1266.357" y1="1181.984" x2="1302.432" y2="1154.986" gradientTransform="matrix(1 0 0 -1 0 1362.15)"><stop offset="0" stop-color="#ff7f40"/><stop offset=".351" stop-color="#fb463f"/><stop offset=".591" stop-color="#fb413f"/><stop offset="1" stop-color="#7f1311"/></linearGradient><circle cx="1280.8" cy="191" r="22.5" fill="url(#SVGID_9_)"/><circle class="st13" cx="1280.8" cy="191" r="19.6"/><path class="st16" d="M1267 204.9c1.6-14.5 13.6-25.9 28.3-26.9-3.6-4-8.8-6.6-14.5-6.6-10.8 0-19.6 8.7-19.6 19.6 0 5.5 2.3 10.4 5.8 13.9z"/><path class="st18" d="M1278.5 6.8c-7.8 10.1-15.6 20-23.4 30.1 3.9-.7 7.8-1.4 11.8-2.2 3.8-9.3 7.8-18.6 11.6-27.9z"/><path class="st19" d="M1331.3 92.6c8.3 15.2 19 38.3 26.4 68.1 6 24.5 7 42.8 8.8 77.7.6 13.3 2.2 48.2 0 96.8-1.2 27-3.7 61-8.8 100.4-3.9 1-7.8 2-11.8 3 5.2-53.9 6.9-99.6 7.4-134.1.5-45.5.9-80.1-5.1-126.1-4.7-35.9-11.4-65.4-16.9-85.8z"/><path class="st18" d="M1228.7 89c-8.3 15.2-19 38.3-26.4 68.1-6 24.5-7 42.8-8.8 77.7-.6 13.3-2.2 48.2 0 96.8 1.2 27 3.7 61 8.8 100.4 3.9 1 7.8 2 11.8 3-5.2-53.9-6.9-99.6-7.4-134.1-.5-45.5-.9-80.1 5.1-126.1 4.7-36 11.5-65.5 16.9-85.8z"/><linearGradient id="SVGID_10_" gradientUnits="userSpaceOnUse" x1="1269.603" y1="981.134" x2="1299.792" y2="889.154" gradientTransform="matrix(1 0 0 -1 0 1362.15)"><stop offset="0" stop-color="#ff7f40"/><stop offset=".54" stop-color="#fb413f"/><stop offset="1" stop-color="#7f1311"/></linearGradient><path d="M1325.8 459.3c16.9-4.9 30.2-11.8 39.6-17.6 2-9.8 4.1-21.4 6.2-34.5-60.2 21.9-121.4 21.9-181.7 0 2.1 13.1 4.2 24.7 6.2 34.5 9.4 5.7 22.7 12.7 39.6 17.6 17.9 5.2 33.7 6.6 45.1 6.6 11.4-.2 27.2-1.4 45-6.6z" fill="url(#SVGID_10_)"/><linearGradient id="SVGID_11_" gradientUnits="userSpaceOnUse" x1="1266.317" y1="953.175" x2="1295.201" y2="953.175" gradientTransform="matrix(1 0 0 -1 0 1362.15)"><stop offset=".407" stop-color="#be2a28"/><stop offset=".887" stop-color="#9a1d1b"/><stop offset="1" stop-color="#7f1311"/></linearGradient><path d="M1280.8 527c8.1 0 7.3-6.6 7.3-14.7l7.1-200c.2-4.9-1.4-9.8-4.6-13.6l-4-5c-3-3.6-8.5-3.6-11.5 0l-4.1 5c-3.1 3.8-4.8 8.6-4.6 13.6l6.4 200.1c-.1 8-.1 14.6 8 14.6z" fill="url(#SVGID_11_)"/><path class="st18" d="M1280.8 298.5c-1.5 73.8-3.1 110.7-4.4 110.7s-2.5-32.5-3.7-97.5l8.1-13.2zm-120.4 22c-14.5 17.9-23.2 34.7-28.5 46.9-4.9 11.3-11.5 26.7-13.9 48.4-.8 7.4-2.1 23.4 1.4 43.3 1.8 10.1 4.3 18.6 6.6 25-3.8-35.1 1.2-61.4 5.1-76.2 5-18.9 12.7-35.8 15.3-41.7 5.3-11.5 10.5-20.9 14.6-27.8-.1-6.1-.3-11.9-.6-17.9z"/><path class="st19" d="M1401.1 320.5c14.5 17.9 23.2 34.7 28.5 46.9 4.9 11.3 11.5 26.7 13.9 48.4.8 7.4 2.1 23.4-1.4 43.3-1.8 10.1-4.3 18.6-6.6 25 3.8-35.1-1.2-61.4-5.1-76.2-5-18.9-12.7-35.8-15.3-41.7-5.3-11.5-10.5-20.9-14.6-27.8.1-6.1.4-11.9.6-17.9z"/></svg>