<svg xmlns="http://www.w3.org/2000/svg" width="356.8" height="987.2" overflow="scroll"><style>.st10{fill:#4ec1ff}.st13,.st15,.st16{opacity:.4;fill:#c0ecff;enable-background:new}.st15,.st16{opacity:.29;fill:#ffd24b}.st16{fill:#6d210c}</style><path d="M356.8 987.2H0c21.4-41.6 42.3-87.4 61.5-137.4 53.6-139.7 77.1-269 86.7-374.6h70.4c4.3 102.7 22.4 234.9 77.3 378.3 18.7 49.3 39.6 93.8 60.9 133.7z" opacity=".5" fill="#fff"/><linearGradient id="SVGID_1_" gradientUnits="userSpaceOnUse" x1="183.35" y1="611.075" x2="183.35" y2="479.275"><stop offset=".497" stop-color="#fec940"/><stop offset="1" stop-color="#ed6e1d"/></linearGradient><path d="M183.4 611.1c-5.1-9.3-9.2-19.1-12.5-29.2-5.6-17.5-8.2-35.7-7.8-54.2.1-2.4-1.4-4.7-3.7-5.6-.7-.3-1.4-.4-2.2-.4-1.6 0-3.2.6-4.3 1.9-2.8 3.1-5.1 6.4-7.2 10-3.1-9.7-5.2-23-1.2-37.2 1.7-6 4.4-11.8 8-17.1h61.7c3.6 5.4 6.3 11.1 8 17.1 4 14.2 1.9 27.5-1.2 37.2-2-3.6-4.4-6.9-7.2-10-1.2-1.3-2.7-1.9-4.3-1.9-.7 0-1.4.2-2.2.4-2.2.9-3.8 3.1-3.7 5.6.4 18.5-2.2 36.7-7.8 54.2-3.2 10-7.4 19.8-12.4 29.2z" fill="url(#SVGID_1_)"/><linearGradient id="SVGID_2_" gradientUnits="userSpaceOnUse" x1="183.5" y1="473.275" x2="183.5" y2="622.675"><stop offset="0" stop-color="#8e1605"/><stop offset=".072" stop-color="#a22509"/><stop offset=".203" stop-color="#c13d10"/><stop offset=".33" stop-color="#d84d14"/><stop offset=".451" stop-color="#e55817"/><stop offset=".559" stop-color="#ea5b18"/></linearGradient><path d="M210.9 485c2.4 4.1 4.3 8.4 5.6 12.9 2.2 7.6 2.3 15 1.5 21.6-2.2-2.4-5.4-3.8-8.6-3.8-1.4 0-3 .3-4.3.8-4.6 1.8-7.4 6.3-7.4 11.1.4 17.9-2.2 35.5-7.5 52.3-2 6.1-4.2 12-6.9 17.9-2.6-5.8-4.9-11.8-6.9-17.9-5.4-16.9-7.9-34.5-7.5-52.3.1-4.8-2.9-9.3-7.4-11.1-1.4-.5-2.9-.8-4.3-.8-3.2 0-6.4 1.3-8.6 3.8-.8-6.6-.6-13.9 1.5-21.6 1.3-4.5 3.1-8.8 5.6-12.9h55.2m6.3-11.7h-67.6c-3.8 5-8 12.2-10.6 21.5-7.3 25.8 3.7 48 7.1 54.3.7-3.1 2.1-7.4 4.5-11.9 2.2-4.1 4.8-7.4 6.8-9.6-.3 13.7.9 33.6 8.1 56.1 5.2 16.2 12 29.3 18 39 6-9.7 12.8-22.8 18-39 7.2-22.5 8.3-42.4 8.1-56.1 2.1 2.2 4.6 5.5 6.8 9.6 2.4 4.6 3.8 8.7 4.5 11.9 3.4-6.3 14.4-28.5 7.1-54.3-2.8-9.3-7-16.5-10.8-21.5z" fill="url(#SVGID_2_)"/><linearGradient id="SVGID_3_" gradientUnits="userSpaceOnUse" x1="183.5" y1="622.675" x2="183.5" y2="473.275"><stop offset=".533" stop-color="#ffed00"/><stop offset="1" stop-color="#e6381a"/></linearGradient><path d="M213.8 479.9c3.4 5.2 6 10.8 7.6 16.6 3.8 13.3 2.1 25.7-.7 35.1-1.9-3.1-3.9-5.9-6.4-8.6-1.3-1.4-3.1-2.2-4.8-2.2-.8 0-1.6.2-2.4.4-2.5 1-4.2 3.5-4.1 6.3.4 18.4-2.2 36.5-7.8 53.9-3.1 9.6-7 18.9-11.8 27.8-4.8-8.9-8.7-18.2-11.8-27.8-5.6-17.4-8.2-35.5-7.8-53.9.1-2.8-1.6-5.2-4.1-6.3-.8-.4-1.6-.4-2.4-.4-1.8 0-3.6.7-4.8 2.2-2.4 2.7-4.6 5.6-6.4 8.6-2.8-9.4-4.5-21.9-.7-35.1 1.6-5.8 4.2-11.4 7.6-16.6h60.8m3.4-6.6h-67.6c-3.8 5-8 12.2-10.6 21.5-7.3 25.8 3.7 48 7.1 54.3.7-3.1 2.1-7.4 4.5-11.9 2.2-4.1 4.8-7.4 6.8-9.6-.3 13.7.9 33.6 8.1 56.1 5.2 16.2 12 29.3 18 39 6-9.7 12.8-22.8 18-39 7.2-22.5 8.3-42.4 8.1-56.1 2.1 2.2 4.6 5.5 6.8 9.6 2.4 4.6 3.8 8.7 4.5 11.9 3.4-6.3 14.4-28.5 7.1-54.3-2.8-9.3-7-16.5-10.8-21.5z" fill="url(#SVGID_3_)"/><linearGradient id="SVGID_4_" gradientUnits="userSpaceOnUse" x1="183.464" y1="-1034.679" x2="183.464" y2="-980.356" gradientTransform="translate(0 1452)"><stop offset=".082" stop-color="#401d1b"/><stop offset="1" stop-color="#661311"/></linearGradient><path d="M239.1 436.5c-5.8 4.9-12.7 9.9-20.7 13.9-13.9 6.9-26.1 8.6-35 8.7-8.9-.1-21.1-1.8-35-8.7-8-3.9-14.9-8.9-20.7-13.9-1.2 6.7-2.3 13.6-3.4 20.3-1.4 10 3.2 18.4 8.6 20.6 33.8 12.4 67.2 12.4 101.1 0 5.4-2.2 10.1-10.6 8.6-20.6-1.2-6.8-2.3-13.5-3.5-20.3z" fill="url(#SVGID_4_)"/><linearGradient id="SVGID_5_" gradientUnits="userSpaceOnUse" x1="82.197" y1="-1219.112" x2="284.603" y2="-1219.112" gradientTransform="translate(0 1452)"><stop offset="0" stop-color="#ff4240"/><stop offset=".176" stop-color="#fb413f"/><stop offset=".353" stop-color="#ef3c3a"/><stop offset=".531" stop-color="#db3533"/><stop offset=".71" stop-color="#be2a28"/><stop offset=".887" stop-color="#9a1d1b"/><stop offset="1" stop-color="#7f1311"/></linearGradient><path d="M183.4 465.8c11.4-.1 27.2-1.3 45.1-6.6 16.9-4.9 30.2-11.8 39.6-17.6 5.4-26.3 11.8-65.4 14.3-113.3 3.6-70.1 7.5-147.6-29.7-229.8-10.9-24-30.2-59.3-65-96.6-2.3-2.5-6.3-2.5-8.6 0-34.7 37.2-54 72.6-65 96.6-37.2 82.2-33.3 159.7-29.7 229.8 2.4 47.8 9 86.9 14.3 113.3 9.4 5.7 22.7 12.7 39.6 17.6 17.9 5.3 33.7 6.5 45.1 6.6z" fill="url(#SVGID_5_)"/><linearGradient id="SVGID_6_" gradientUnits="userSpaceOnUse" x1="161.379" y1="-1219.025" x2="298.439" y2="-1219.025" gradientTransform="translate(0 1452)"><stop offset=".01" stop-color="#9a1d1b"/><stop offset="1" stop-color="#7f1311"/></linearGradient><path d="M252.7 98.7c-10.9-24-30.2-59.3-65-96.6a5.86 5.86 0 0 0-4.3-1.9v465.6c11.4-.1 27.2-1.3 45.1-6.6 16.9-4.9 30.2-11.8 39.6-17.6 5.4-26.3 11.8-65.4 14.3-113.3 3.5-70 7.4-147.4-29.7-229.6z" opacity=".47" fill="url(#SVGID_6_)"/><linearGradient id="SVGID_7_" gradientUnits="userSpaceOnUse" x1="127.202" y1="-1242.682" x2="231.328" y2="-1145.32" gradientTransform="translate(0 1452)"><stop offset="0" stop-color="#ff7f40"/><stop offset=".54" stop-color="#fb413f"/><stop offset="1" stop-color="#7f1311"/></linearGradient><path d="M82.4 246.7c-.3 10.1-.3 20.2-.1 30.1 67-13.6 135.1-13.6 202 0 .2-9.9.2-19.9-.1-30.1-66.8-13-134.8-13-201.8 0z" fill="url(#SVGID_7_)"/><linearGradient id="SVGID_8_" gradientUnits="userSpaceOnUse" x1="131.799" y1="-1435.024" x2="193.665" y2="-1416.775" gradientTransform="translate(0 1452)"><stop offset="0" stop-color="#ff7f40"/><stop offset=".54" stop-color="#fb413f"/><stop offset="1" stop-color="#7f1311"/></linearGradient><path d="M226.7 51.7c-10.1-15.5-23-32.3-39-49.6-2.3-2.5-6.3-2.5-8.6 0-16.1 17.2-28.9 34.1-39 49.6 28.7-13.2 57.8-13.2 86.6 0z" fill="url(#SVGID_8_)"/><linearGradient id="SVGID_9_" gradientUnits="userSpaceOnUse" x1="161.102" y1="-1358.513" x2="216.828" y2="-1316.808" gradientTransform="translate(0 1452)"><stop offset="0" stop-color="#ff7f40"/><stop offset=".351" stop-color="#fb463f"/><stop offset=".591" stop-color="#fb413f"/><stop offset="1" stop-color="#7f1311"/></linearGradient><circle cx="183.4" cy="110.2" r="34.8" fill="url(#SVGID_9_)"/><circle class="st10" cx="183.4" cy="110.2" r="30.2"/><linearGradient id="SVGID_10_" gradientUnits="userSpaceOnUse" x1="9.786" y1="-1043.053" x2="91.162" y2="-1043.053" gradientTransform="translate(0 1452)"><stop offset=".407" stop-color="#be2a28"/><stop offset=".887" stop-color="#9a1d1b"/><stop offset="1" stop-color="#7f1311"/></linearGradient><path d="M84.4 328.4c-.6-11.6-1.2-23.3-1.6-35.4-.1-.7-.1-1.4-.2-2.1-16.2 11.8-36.2 30.5-51.2 58.2-4.8 8.7-37.3 71.1-12.2 138.8 3.2 8.7 10.9 28.8 14.5 35.4 3.5 6.1 12.7 4.4 13.7-2.6 1.3-8.8-1.7-28.9-1-34.7 3.2-27.3 3.1-37.5 9.2-54.2 7.7-20.6 16.1-26.9 22-29.8 5-2.4 9.9-3.1 13.3-3.4-2.6-20.4-5.2-44-6.5-70.2z" fill="url(#SVGID_10_)"/><linearGradient id="SVGID_11_" gradientUnits="userSpaceOnUse" x1="275.4" y1="-1043.003" x2="356.743" y2="-1043.003" gradientTransform="translate(0 1452)"><stop offset=".407" stop-color="#be2a28"/><stop offset=".887" stop-color="#9a1d1b"/><stop offset="1" stop-color="#7f1311"/></linearGradient><path d="M335.2 349.2c-15-27.6-35-46.2-51.2-58.2-.1.7-.1 1.4-.2 2.1-.4 11.9-1 23.8-1.6 35.4-1.3 26.2-3.9 49.8-6.8 70.1 3.5.2 8.3.9 13.3 3.4 5.9 2.9 14.3 9.2 22 29.8 6.2 16.7 6.1 27 9.2 54.2.7 5.8-2.2 25.8-1 34.7 1 7 10.2 8.7 13.7 2.6 3.8-6.5 11.4-26.7 14.5-35.4 25.5-67.7-7.1-130-11.9-138.7z" fill="url(#SVGID_11_)"/><path class="st13" d="M162.2 131.8c2.5-22.4 20.9-40.1 43.7-41.6-5.6-6.2-13.6-10.1-22.5-10.1-16.7 0-30.2 13.6-30.2 30.2-.1 8.4 3.4 16 9 21.5z"/><linearGradient id="SVGID_12_" gradientUnits="userSpaceOnUse" x1="168.957" y1="-1271.834" x2="205.032" y2="-1244.836" gradientTransform="translate(0 1452)"><stop offset="0" stop-color="#ff7f40"/><stop offset=".351" stop-color="#fb463f"/><stop offset=".591" stop-color="#fb413f"/><stop offset="1" stop-color="#7f1311"/></linearGradient><circle cx="183.4" cy="191" r="22.5" fill="url(#SVGID_12_)"/><circle class="st10" cx="183.4" cy="191" r="19.6"/><path class="st13" d="M169.6 204.9c1.6-14.5 13.6-25.9 28.3-26.9-3.6-4-8.8-6.6-14.5-6.6-10.8 0-19.6 8.7-19.6 19.6 0 5.5 2.3 10.4 5.8 13.9z"/><path class="st15" d="M181.1 6.8c-7.8 10.1-15.6 20-23.4 30.1 3.9-.7 7.8-1.4 11.8-2.2 3.8-9.3 7.8-18.6 11.6-27.9z"/><path class="st16" d="M233.9 92.6c8.3 15.2 19 38.3 26.4 68.1 6 24.5 7 42.8 8.8 77.7.6 13.3 2.2 48.2 0 96.8-1.2 27-3.7 61-8.8 100.4-3.9 1-7.8 2-11.8 3 5.2-53.9 6.9-99.6 7.4-134.1.5-45.5.9-80.1-5.1-126.1-4.7-35.9-11.4-65.4-16.9-85.8z"/><path class="st15" d="M131.3 89c-8.3 15.2-19 38.3-26.4 68.1-6 24.5-7 42.8-8.8 77.7-.6 13.3-2.2 48.2 0 96.8 1.2 27 3.7 61 8.8 100.4 3.9 1 7.8 2 11.8 3-5.2-53.9-6.9-99.6-7.4-134.1-.5-45.5-.9-80.1 5.1-126.1 4.7-36 11.5-65.5 16.9-85.8z"/><linearGradient id="SVGID_13_" gradientUnits="userSpaceOnUse" x1="172.202" y1="-1070.984" x2="202.391" y2="-979.005" gradientTransform="translate(0 1452)"><stop offset="0" stop-color="#ff7f40"/><stop offset=".54" stop-color="#fb413f"/><stop offset="1" stop-color="#7f1311"/></linearGradient><path d="M228.4 459.3c16.9-4.9 30.2-11.8 39.6-17.6 2-9.8 4.1-21.4 6.2-34.5-60.2 21.9-121.4 21.9-181.7 0 2.1 13.1 4.2 24.7 6.2 34.5 9.4 5.7 22.7 12.7 39.6 17.6 17.9 5.2 33.7 6.6 45.1 6.6 11.4-.2 27.2-1.4 45-6.6z" fill="url(#SVGID_13_)"/><linearGradient id="SVGID_14_" gradientUnits="userSpaceOnUse" x1="168.916" y1="-1043.025" x2="197.801" y2="-1043.025" gradientTransform="translate(0 1452)"><stop offset=".407" stop-color="#be2a28"/><stop offset=".887" stop-color="#9a1d1b"/><stop offset="1" stop-color="#7f1311"/></linearGradient><path d="M183.4 527c8.1 0 7.3-6.6 7.3-14.7l7.1-200c.2-4.9-1.4-9.8-4.6-13.6l-4-5c-3-3.6-8.5-3.6-11.5 0l-4.1 5c-3.1 3.8-4.8 8.6-4.6 13.6l6.4 200.1c-.1 8-.1 14.6 8 14.6z" fill="url(#SVGID_14_)"/><path class="st15" d="M183.4 298.5c-1.5 73.8-3.1 110.7-4.4 110.7s-2.5-32.5-3.7-97.5l8.1-13.2zM63 320.5c-14.5 17.9-23.2 34.7-28.5 46.9-4.9 11.3-11.5 26.7-13.9 48.4-.8 7.4-2.1 23.4 1.4 43.3 1.8 10.1 4.3 18.6 6.6 25-3.8-35.1 1.2-61.4 5.1-76.2 5-18.9 12.7-35.8 15.3-41.7 5.3-11.5 10.5-20.9 14.6-27.8-.1-6.1-.3-11.9-.6-17.9z"/><path class="st16" d="M303.7 320.5c14.5 17.9 23.2 34.7 28.5 46.9 4.9 11.3 11.5 26.7 13.9 48.4.8 7.4 2.1 23.4-1.4 43.3-1.8 10.1-4.3 18.6-6.6 25 3.8-35.1-1.2-61.4-5.1-76.2-5-18.9-12.7-35.8-15.3-41.7-5.3-11.5-10.5-20.9-14.6-27.8.1-6.1.4-11.9.6-17.9z"/></svg>