<svg version="1.0" xmlns="http://www.w3.org/2000/svg" width="897" height="718" viewBox="0 0 8970 7180"><path d="M0 5788c1-1264 2-1391 16-1373 9 11 36 55 61 98 25 42 47 77 49 77s35-26 73-57c232-195 560-279 891-228 203 31 324 88 447 210 65 66 89 99 121 166 42 87 66 172 78 272 3 31 9 57 11 57 3 0 47-16 99-35 374-140 715-94 962 130 34 31 62 52 62 46 0-20 61-80 93-90 18-6 51-12 74-14l41-2 17-60c74-266 253-486 466-572 149-60 329-77 509-48 58 10 119 20 136 22 27 4 33 0 66-50 71-106 222-237 339-292l36-17 6-122c7-131 23-211 63-315 94-238 306-454 538-548 45-18 115-40 157-50l76-17 6-81c7-92 38-189 86-264 69-107 218-216 327-239l39-8 6-104c8-132 22-205 59-315 117-347 407-615 768-712 87-24 116-27 272-27 128 0 192 4 238 15 44 12 62 13 62 5 0-6 15-43 34-81 43-89 110-154 201-197 64-30 78-32 165-32 64 0 109 6 139 17 24 10 45 16 46 15 2-2 10-51 19-111 50-342 250-645 541-821l60-36h415v7180H0V5788z" fill="#31547a"/><path d="M1 6073c0-610 3-1103 5-1096 3 6 38-14 87-51 45-34 122-82 172-107 282-144 538-154 798-30 288 137 484 363 541 622 6 25 9 27 98 34 268 21 493 146 605 336l15 25 82-81c173-173 417-267 734-282 118-6 122-7 122-29 0-12 21-63 46-113 128-257 469-480 857-563 197-41 467-27 674 37l73 23v-35c0-116 69-297 153-404 183-230 507-318 786-213 35 13 65 23 67 22 1-2 14-39 29-83 92-269 278-510 521-677 117-80 335-173 475-202 25-5 26-9 32-88 25-332 249-608 577-709 62-20 98-24 205-24 72 0 147 2 168 5l38 5 23-70c58-178 154-334 291-470 171-172 362-274 606-324l89-18v5667H0l1-1107z" fill="#b9c8cf"/><path d="M0 6476v-704l37-4c54-7 198 8 268 28 104 29 97 30 135-32 39-64 111-126 166-144 62-21 161-8 233 30 116 62 179 166 168 275l-5 52 62 6c164 15 304 123 362 277 9 25 20 49 24 53 4 5 44 1 90-9 61-12 113-15 199-11 133 5 214 27 305 82l60 36 80-41c134-67 275-83 355-40 30 16 31 14 31-49 0-123 58-238 151-296 103-65 258-87 338-48l44 22 18-22c10-12 18-25 19-28 0-4 25-24 56-45 53-36 61-39 128-39 47 0 81 6 103 18 30 16 33 16 75-3 94-43 213-12 284 76 33 40 37 42 57 29 93-60 294-22 402 76 69 64 97 128 103 237 2 45 6 82 7 82s20-7 41-16c79-34 223-15 338 43l49 25-6-36c-3-20-1-64 4-97 26-161 144-279 312-310 44-8 67-17 67-26 0-24 50-113 85-152 19-21 63-53 97-71 35-18 64-33 65-34s-8-28-19-61c-53-157 32-336 188-395 86-32 190-25 266 17l54 31 48-54c64-73 130-106 224-112 39-2 72-6 72-7s-12-29-27-61c-22-49-27-73-27-145-1-82 1-91 39-165 68-133 182-204 328-204 40 0 88 4 107 10 28 8 36 7 44-7 25-45 95-106 154-135s75-33 152-33h86l-13-45c-9-28-13-69-10-108 12-164 149-293 312-296h51l-14-41c-33-95 6-233 89-310 71-66 127-89 219-89 84 0 160 28 216 81l31 29 44-39c24-22 69-52 99-66 47-22 68-26 150-26 86 0 101 3 161 31l66 32 40-47c78-90 218-141 335-122 31 6 66 15 78 21l20 11v3819H0v-704z" fill="#edf1f2"/></svg>