<svg xmlns="http://www.w3.org/2000/svg" width="1920.1" height="730.4" overflow="scroll"><path d="M1920.1 0c-56.4 6.2-100.5 52.9-102.5 110.5-5.8-3.1-12.3-4.9-19.3-4.9-19.8 0-36.2 14.1-39.9 32.7-9.4-2.6-19.4-4-29.7-4-60.9 0-110.3 49.4-110.3 110.3 0 2 .1 4 .2 6-26.2 4.7-46.2 27.6-46.2 55.1 0 1.5.1 3 .2 4.5-47.6 6.7-84.2 47.6-84.2 97 0 2.7.1 5.3.3 7.9-29.1 12.3-42.1 37.2-42.1 37.2-99.9-26.7-115.2 64.7-115.2 64.7-19.3-1.2-21.3 12.5-21.3 12.5v.4c-11.6-13.8-47.7-45.8-113.8-15.2 0 0 3.1-60.7-62.1-71.5s-98.6 29.8-98.6 29.8-97.3-196.6-288.8-73.9c0 0-38.7-88.6-122.3-88-83.6.6-131.3 62.5-133.2 63.1-1.9.6-76-32.7-136.2 20.8 0 0-33.9-12.5-48.3 0 0 0-39.1-86.8-136.9-39.3 0 0-6.3-51.2-67.8-51.8s-65.3 45.8-65.3 45.8-22.3-6.3-36.7 4.7v306.8h1920V0z" fill="#31547a"/><path d="M1819.3 252.2c-6.2-1.5-12.7-2.4-19.3-2.4-44.2 0-80 35.8-80 80 0 .8 0 1.5.1 2.3-51.1 9.5-92.1 47.9-105.4 97.5-9.4-4.8-20.1-7.5-31.4-7.5-38.2 0-69.3 31-69.3 69.3v.4c-23.9-8.2-56.3-13.4-91.2-1.5-70.3 23.9-74.3 66-74.3 66s-63.1-5.1-92.9 37.1c-23.3-41.9-71.7-36.8-71.7-36.8s-3.2-42.8-57.8-67.2c-54.6-24.4-101.7 21.7-101.7 21.7s-25.7-32.5-77.8-39c-52.1-6.5-81 41.2-81 41.2-35.8-17.9-55.9-7.6-55.9-7.6s-75.6-65.9-148.3-3.1c0 0-40-45.2-99.3-9.4 0 0-62.1-19.5-70.6 30.1 0 0-33-55.3-98.9-30.1 0 0-43.3-86.2-129.9-25.2 0 0-46.2-21.9-74.4 19.5 0 0-26.3-17.1-41.4-4.9 0 0-33.2-75.9-146.9-55.3v253.3h1920l.1-516.9c-49.2 5.4-89.3 41.3-100.8 88.5z" fill="#cedadd"/><path d="M1920.1 348.2c-4.7-2.2-10-3.4-15.5-3.4-13.5 0-25.4 7.3-31.8 18.1-6.2-4.8-14.1-7.7-22.6-7.7-11.9 0-22.6 5.7-29.3 14.5-5.4-6.9-13.6-11.5-23.1-12-17.4-1-32.3 12.4-33.3 29.8-.3 5.3.7 10.3 2.8 14.8-1.2-.2-2.4-.3-3.6-.4-17.4-1-32.3 12.4-33.3 29.8-.3 5.6.9 11 3.2 15.7-2.8-.7-5.7-1-8.7-1-14 0-26.1 7.7-32.4 19.2-4.3-1.7-9-2.7-13.9-2.7-20.4 0-37 16.6-37 37 0 8.3 2.7 16 7.3 22.1-1.8-.4-3.7-.7-5.6-.8-13.2-.7-24.9 6.7-30.3 17.9-5.1-4.6-11.8-7.5-19.2-7.9-17.4-1-32.3 12.4-33.3 29.8-.4 6.6 1.3 12.8 4.5 18-13.1 3.6-23.4 14.3-26.3 27.7h-.9c-20.4 0-37 16.6-37 37 0 2.8.3 5.6.9 8.3-7.6-4.6-28.3-15.2-44.1-4.7 0 0 5-28.2-18.8-38.8s-33.9.2-33.9.2-12.7-23.6-35.8-10.4c-23.1-13.1-35.8 10.4-35.8 10.4s-10.1-10.8-33.9-.2c-23.7 10.6-18.8 38.8-18.8 38.8-19.8-13.2-47.1 6.6-47.1 6.6-27.8-22.1-65.9-8.8-65.9-8.8-11-39.2-45.5-34.5-45.5-34.5s9.1-22.2-18.2-34.7c-27.3-12.4-40.2 19.1-40.2 19.1-63.4-23.2-102.6 27-102.6 27-35.2-51.8-91.7-20.4-91.7-20.4-12.9-38.9-51.2-22-51.2-22s-38.3-16.9-51.2 22c0 0-56.5-31.4-91.7 20.4 0 0-39.2-50.2-102.6-27 0 0-12.9-31.5-40.2-19.1-27.3 12.4-18.2 34.7-18.2 34.7s-34.5-4.7-45.5 34.5c0 0-38.1-13.3-65.9 8.8 0 0-27.3-19.8-47.1-6.6 0 0 5-28.2-18.8-38.8-23.8-10.6-33.9.2-33.9.2s-12.7-23.6-35.8-10.4c-23.1-13.1-35.8 10.4-35.8 10.4s-10.1-10.8-33.9-.2c-23.7 10.6-18.8 38.8-18.8 38.8-19.8-13.2-47.1 6.6-47.1 6.6-27.7-22.2-65.8-8.9-65.8-8.9-11-39.2-45.5-34.5-45.5-34.5s9.1-22.2-18.2-34.7c-.7-.3-1.5-.6-2.2-.9v155.5h1920.1V348.2z" fill="#fff"/></svg>