<svg xmlns="http://www.w3.org/2000/svg" width="1920" height="536.2"><style/><linearGradient id="SVGID_1_" gradientUnits="userSpaceOnUse" x1="960" y1="357.258" x2="960"><stop offset=".519" stop-color="#1e2b40"/><stop offset=".639" stop-color="#1c283c"/><stop offset=".76" stop-color="#172030"/><stop offset=".88" stop-color="#0d131c"/><stop offset=".999"/><stop offset="1"/></linearGradient><path d="M1920 357.3H0V69.5c49.3-16.6 98.6 3 98.6 3S117.9 12.6 199.8 25s74.9 84.2 74.9 84.2C308.4 94.9 345 117 345 117c90.9-40.9 128.5 31.4 128.5 31.4 99.9-26.7 115.2 64.7 115.2 64.7 19.3-1.2 21.3 12.5 21.3 12.5v.4c11.6-13.8 47.7-45.8 113.8-15.2 0 0-3.1-60.7 62.1-71.5s98.6 29.8 98.6 29.8 97.3-196.6 288.8-73.9c0 0 38.7-88.6 122.3-88 83.6.6 131.3 62.5 133.2 63.1s76-32.7 136.2 20.8c0 0 33.9-12.5 48.3 0 0 0 39.1-86.8 136.9-39.3 0 0 6.3-51.2 67.8-51.8 61.5-.6 65.3 45.8 65.3 45.8s22.3-6.3 36.7 4.7v306.8z" fill="url(#SVGID_1_)"/><linearGradient id="SVGID_2_" gradientUnits="userSpaceOnUse" x1="960" y1="357.258" x2="960" y2="100.382"><stop offset="0" stop-color="#304466"/><stop offset=".312" stop-color="#2e4161"/><stop offset=".674" stop-color="#273853"/><stop offset="1" stop-color="#1e2b40"/></linearGradient><path d="M1773.1 159.2c-15.1-12.2-41.4 4.9-41.4 4.9-28.2-41.4-74.4-19.5-74.4-19.5-86.6-61-129.9 25.2-129.9 25.2-65.9-25.2-98.9 30.1-98.9 30.1-8.5-49.6-70.6-30.1-70.6-30.1-59.3-35.8-99.3 9.4-99.3 9.4-72.7-62.8-148.3 3.1-148.3 3.1s-20.1-10.3-55.9 7.6c0 0-28.9-47.7-81-41.2s-77.8 39-77.8 39-47.1-46.1-101.7-21.7c-54.6 24.4-57.8 67.2-57.8 67.2s-48.4-5.1-71.7 36.8c-29.8-42.2-92.9-37.1-92.9-37.1s-4-42.1-74.3-66-130.8 21.3-130.8 21.3-33.1-31.9-100.1-38.3c-67-6.4-104.1 40.5-104.1 40.5-46-17.6-71.8-7.5-71.8-7.5C40.4 109.5 0 114.2 0 114.2v243h1920V103.9c-113.7-20.6-146.9 55.3-146.9 55.3z" opacity=".8" fill="url(#SVGID_2_)"/><linearGradient id="SVGID_3_" gradientUnits="userSpaceOnUse" x1="960" y1="536.235" x2="960" y2="249.542"><stop offset="0" stop-color="#fff"/><stop offset=".108" stop-color="#f9fafb"/><stop offset=".25" stop-color="#e9ebef"/><stop offset=".41" stop-color="#ced2db"/><stop offset=".584" stop-color="#a8b0bf"/><stop offset=".769" stop-color="#77849b"/><stop offset=".961" stop-color="#3d5070"/><stop offset="1" stop-color="#304466"/></linearGradient><path d="M0 536.2h1920V251.5c-.7.3-1.5.6-2.2.9-27.3 12.5-18.2 34.7-18.2 34.7s-34.5-4.7-45.5 34.5c0 0-38.1-13.3-65.9 8.8 0 0-27.3-19.8-47.1-6.6 0 0 4.9-28.2-18.8-38.8-23.8-10.6-33.9.2-33.9.2s-12.7-23.5-35.8-10.4c-23.1-13.2-35.8 10.4-35.8 10.4s-10.1-10.8-33.9-.2c-23.8 10.6-18.8 38.8-18.8 38.8-19.8-13.2-47.1 6.6-47.1 6.6-27.8-22.1-65.9-8.8-65.9-8.8-11-39.2-45.5-34.5-45.5-34.5s9.1-22.3-18.2-34.7-40.2 19.1-40.2 19.1c-63.4-23.2-102.6 27-102.6 27-35.2-51.8-91.7-20.4-91.7-20.4-12.9-38.9-51.2-22-51.2-22s-38.3-16.9-51.2 22c0 0-56.5-31.4-91.7 20.4 0 0-39.2-50.2-102.6-27 0 0-12.9-31.5-40.2-19.1-27.3 12.5-18.2 34.7-18.2 34.7s-34.5-4.7-45.5 34.5c0 0-38.1-13.3-65.9 8.8 0 0-27.3-19.8-47.1-6.6 0 0 4.9-28.2-18.8-38.8-23.8-10.6-33.9.2-33.9.2s-12.7-23.5-35.8-10.4c-23.1-13.2-35.8 10.4-35.8 10.4s-10.1-10.8-33.9-.2c-23.8 10.6-18.8 38.8-18.8 38.8-19.8-13.2-47.1 6.6-47.1 6.6-27.8-22.1-65.9-8.8-65.9-8.8-11-39.2-45.5-34.5-45.5-34.5s9.1-22.3-18.2-34.7-40.2 19.1-40.2 19.1c-63.4-23.2-102.6 27-102.6 27-35.2-51.8-91.7-20.4-91.7-20.4-12.9-38.9-51.2-22-51.2-22v280.1" fill="url(#SVGID_3_)"/></svg>