<svg xmlns="http://www.w3.org/2000/svg" width="1665.511" height="212"><path d="M128.569 138.954c0-9.623-11.393-11.783-25.14-12.568-29.854-2.159-49.497-12.371-49.889-42.225-1.18-59.32 105.666-59.32 104.883 0h-33.391c0-18.27-36.924-16.698-38.101-.395-.788 10.411 9.425 12.568 21.797 13.945 27.302 2.944 54.014 7.068 54.014 41.441 0 57.741-111.952 58.724-111.166-1.768h33.978c.001 17.48 43.015 17.679 43.015 1.57zm139.243 23.179H213.6l-8.049 17.284H171.18v-5.107l61.868-134.146h15.121l62.064 134.146v5.107h-34.372l-8.049-17.284zm-27.303-66.384l-15.318 36.138h31.033l-15.715-36.138zm124.121 16.104v67.564h-36.338V41.339h12.768l69.527 67.963V41.931h35.944v137.683h-12.57l-69.331-67.761zm103.297-38.498V41.93h102.132v31.425h-33.586v106.062h-34.764V73.355h-33.782zm185.206 75.227v30.835h-69.726v-30.835h17.48V72.57H584.78V41.93h66.975v30.64h-16.102v76.012h17.48zm102.314 13.551h-54.206l-8.051 17.284h-34.373v-5.107l61.866-134.146h15.124l62.064 134.146v5.107h-34.369l-8.055-17.284zM728.15 95.749l-15.321 36.138h31.03L728.15 95.749zm149.849-55.586c27.69.196 56.563 14.533 63.242 48.711H906.67c-5.693-11.785-14.729-16.498-28.671-16.498-22.195 0-34.178 17.281-34.178 38.3 0 22.782 13.358 37.709 34.178 37.709 14.138 0 23.174-3.733 29.456-16.89h-29.261v-30.447h65.012c.786 13.75.786 26.914-3.932 40.268-9.82 28.672-35.939 39.672-61.275 39.672-34.966 0-70.315-23.373-70.511-70.312.196-46.944 35.545-70.513 70.511-70.513zm84.637 70.707c0-95.061 141.02-95.061 141.02 0-.001 95.254-141.02 95.254-141.02 0zm105.081 0c0-49.492-68.945-49.492-68.945 0-.001 49.887 68.945 49.887 68.945 0zm205.612 36.924h49.891v31.623h-85.243V41.931h35.353l-.001 105.863zm36.532 14.928h-53.032V55.286h-2.157v109.203h55.189v-1.767zm116.855-.589h-54.21l-8.053 17.284h-34.367v-5.107l61.865-134.146h15.124l62.064 134.146v5.107h-34.372l-8.051-17.284zm-26.713-101.937h-1.175l-48.91 105.863h2.554l9.236-19.442h76.005l9.036 19.442h2.554l-49.3-105.863zm-37.515 84.259h74.438l-37.315-79.939h-.194l-36.929 79.939zm51.464-13.942h-28.679l14.144-31.625 14.535 31.625zm163.984-22.588c11.198 5.695 16.502 15.908 16.502 28.084-.197 23.962-14.735 43.408-42.819 43.408h-64.421V41.931h58.728c23.763 0 42.816 18.463 42.816 42.23 0 8.248-4.124 18.266-10.806 23.764zm-74.24-51.264v108.22h47.526c14.928 0 26.909-14.138 26.909-28.872 0-12.962-10.01-25.139-23.174-25.727v-.788c10.015-2.354 17.481-15.122 17.481-25.333 0-14.93-11.977-27.5-26.714-27.5h-42.028zm1.962 1.77v51.26h40.066c14.144 0 24.747-11.586 24.747-25.529 0-13.75-10.995-25.73-24.747-25.73h-40.066zm0 53.028v51.459h45.564c13.556 0 24.949-12.962 24.949-26.909s-11.394-24.55-24.949-24.55h-45.564zm37.52-38.104c14.135 0 14.135 21.802.19 21.802h-22.191V73.355h22.001zm6.085 74.833h-28.086v-22.586h27.892c14.136.001 14.333 22.586.194 22.586zm-346.942 20.096c.016.007.041-.016.058-.016l-3.427.008 3.369.008z"/><path d="M1202.321 156.31l-68.239-.035c-2.695-.007-4.862 2.695-4.854 6.012 0 3.284 2.173 5.954 4.846 5.982h7.299c.652 6.105 3.329 11.828 7.745 16.199 5.113 5.107 11.903 7.922 19.113 7.924h.002c7.217 0 14-2.818 19.1-7.926 4.399-4.398 7.07-10.117 7.728-16.197h7.319c2.649-.069 4.798-2.732 4.825-5.982-.017-3.326-2.204-6.013-4.884-5.977zm-24.841 18.308a12.983 12.983 0 0 1-9.248 3.846h-.002c-3.496 0-6.788-1.369-9.291-3.873a12.83 12.83 0 0 1-2.728-3.969h24.003a13.117 13.117 0 0 1-2.734 3.996zm48.57-99.712c0-31.13-25.325-56.454-56.457-56.454-31.127 0-56.454 25.324-56.454 56.454 0 17.929 8.414 34.56 22.693 45.214v18.163l-1.793-.003c-2.698-.014-4.862 2.693-4.855 6.01 0 3.284 2.171 5.957 4.846 5.982h68.306c2.649-.069 4.798-2.732 4.825-5.982-.012-2.345-1.113-4.347-2.695-5.326v-19.67c13.579-10.684 21.584-27.008 21.584-44.388zm-53.624 63.396l-6.948-.002 3.543-8.312 3.405 8.314zm-15.332-55.005l-.456.186 1.146-6.875 4.248 15.198 3.07-13.988 2.313 8.883 4.626-26.858 3.846 24.456 4.614-9.79 2.118 9.044-.893-.381-12.587 29.531-12.045-29.406zm36.472 26.728l-3.028 2.075v26.213l-10.907-.008-6.938-16.936 14.465-33.935 8.111-.019-.021-3.48-9.264.027-4.99-18.665-3.438 7.287-5.352-34.132-5.487 31.777-1.905-7.335-3.188 14.54-3.868-13.832-4.244 19.396-7.463.021.014 3.479 5.134-.014 14.271 34.833-7.234 16.974-8.472-.004v-25.6l-3.184-2.057c-12.218-7.896-19.512-21.252-19.512-35.728 0-23.448 19.079-42.526 42.525-42.526 23.451 0 42.53 19.078 42.53 42.526.002 14.04-6.937 27.167-18.555 35.123zm8.711 40.263c.017.007.042-.016.058-.016l-3.426.014 3.368.002z"/></svg>