<?xml version="1.0" encoding="utf-8"?>
<!-- Generator: Adobe Illustrator 16.0.0, SVG Export Plug-In . SVG Version: 6.00 Build 0)  -->
<!DOCTYPE svg PUBLIC "-//W3C//DTD SVG 1.1//EN" "http://www.w3.org/Graphics/SVG/1.1/DTD/svg11.dtd">
<svg version="1.1" id="Layer_1" xmlns="http://www.w3.org/2000/svg" xmlns:xlink="http://www.w3.org/1999/xlink" x="0px" y="0px"
	 width="1665.511px" height="212px" viewBox="0 0 1665.511 212" enable-background="new 0 0 1665.511 212" xml:space="preserve">
<g>
	<g>
		<g>
			<path d="M128.569,138.954c0-9.623-11.393-11.783-25.14-12.568c-29.854-2.159-49.497-12.371-49.889-42.225
				c-1.18-59.32,105.666-59.32,104.883,0c-12.376,0-21.411,0-33.391,0c0-18.27-36.924-16.698-38.101-0.395
				c-0.788,10.411,9.425,12.568,21.797,13.945c27.302,2.944,54.014,7.068,54.014,41.441c0,57.741-111.952,58.724-111.166-1.768
				c11.784,0,21.998,0,33.978,0C85.555,154.864,128.569,155.063,128.569,138.954z"/>
		</g>
		<g>
			<path d="M267.812,162.133H213.6l-8.049,17.284H171.18v-5.107l61.868-134.146h15.121l62.064,134.146v5.107h-34.372
				L267.812,162.133z M240.509,95.749l-15.318,36.138h31.033L240.509,95.749z"/>
		</g>
		<g>
			<path d="M364.63,111.853v67.564c-12.18,0-24.354,0-36.338,0V41.339h12.768l69.527,67.963V41.931c11.981,0,23.961,0,35.944,0
				v137.683h-12.57L364.63,111.853z"/>
		</g>
		<g>
			<path d="M467.927,73.355c0-10.603,0-21.015,0-31.425h102.132c0,10.41,0,20.822,0,31.425h-33.586v106.062
				c-11.587,0-23.175,0-34.764,0V73.355H467.927z"/>
		</g>
		<g>
			<path d="M653.133,148.582c0,11.585,0,18.853,0,30.835c-23.376,0-46.354,0-69.726,0c0-11.982,0-19.25,0-30.835h17.48V72.57H584.78
				c0-11.782,0-19.052,0-30.64c22.391,0,44.584,0,66.975,0c0,11.588,0,18.857,0,30.64h-16.102v76.012H653.133z"/>
		</g>
		<g>
			<path d="M755.447,162.133h-54.206l-8.051,17.284h-34.373v-5.107l61.866-134.146h15.124l62.064,134.146v5.107h-34.369
				L755.447,162.133z M728.15,95.749l-15.321,36.138h31.03L728.15,95.749z"/>
		</g>
		<g>
			<path d="M877.999,40.163c27.69,0.196,56.563,14.533,63.242,48.711H906.67c-5.693-11.785-14.729-16.498-28.671-16.498
				c-22.195,0-34.178,17.281-34.178,38.3c0,22.782,13.358,37.709,34.178,37.709c14.138,0,23.174-3.733,29.456-16.89h-29.261v-30.447
				h65.012c0.786,13.75,0.786,26.914-3.932,40.268c-9.82,28.672-35.939,39.672-61.275,39.672c-34.966,0-70.315-23.373-70.511-70.312
				C807.684,63.732,843.033,40.163,877.999,40.163z"/>
		</g>
		<g>
			<path d="M962.636,110.87c0-95.061,141.02-95.061,141.02,0C1103.655,206.124,962.636,206.124,962.636,110.87z M1067.717,110.87
				c0-49.492-68.945-49.492-68.945,0C998.771,160.757,1067.717,160.757,1067.717,110.87z"/>
		</g>
		<g>
			<path d="M1273.329,147.794h49.891c0,11.785,0,19.838,0,31.623c-28.283,0-57.356,0-85.243,0V41.931c11.785,0,23.373,0,35.353,0
				C1273.329,113.03,1273.329,89.268,1273.329,147.794z M1309.861,162.722h-53.032c0-106.254,0-16.893,0-107.436h-2.157v109.203
				h55.189V162.722z"/>
		</g>
		<g>
			<path d="M1426.716,162.133h-54.21l-8.053,17.284h-34.367v-5.107l61.865-134.146h15.124l62.064,134.146v5.107h-34.372
				L1426.716,162.133z M1400.003,60.196h-1.175l-48.91,105.863h2.554l9.236-19.442h76.005l9.036,19.442h2.554L1400.003,60.196z
				 M1362.488,144.455h74.438l-37.315-79.939h-0.194L1362.488,144.455z M1413.952,130.513h-28.679l14.144-31.625L1413.952,130.513z"
				/>
		</g>
		<g>
			<path d="M1577.936,107.925c11.198,5.695,16.502,15.908,16.502,28.084c-0.197,23.962-14.735,43.408-42.819,43.408h-64.421V41.931
				h58.728c23.763,0,42.816,18.463,42.816,42.23C1588.742,92.409,1584.618,102.427,1577.936,107.925z M1503.696,56.661v108.22
				h47.526c14.928,0,26.909-14.138,26.909-28.872c0-12.962-10.01-25.139-23.174-25.727v-0.788
				c10.015-2.354,17.481-15.122,17.481-25.333c0-14.93-11.977-27.5-26.714-27.5H1503.696z M1505.658,58.431v51.26h40.066
				c14.144,0,24.747-11.586,24.747-25.529c0-13.75-10.995-25.73-24.747-25.73H1505.658z M1505.658,111.459v51.459h45.564
				c13.556,0,24.949-12.962,24.949-26.909s-11.394-24.55-24.949-24.55H1505.658z M1543.178,73.355
				c14.135,0,14.135,21.802,0.19,21.802h-22.191V73.355H1543.178z M1549.263,148.188h-28.086v-22.586h27.892
				C1563.205,125.603,1563.402,148.188,1549.263,148.188z"/>
		</g>
	</g>
	<g opacity="0.59">
		<g>
			<path stroke="#FFFFFF" stroke-width="7.782" stroke-miterlimit="10" d="M1144.587,150.62"/>
		</g>
	</g>
	<g>
		<g>
			<path stroke="#FFFFFF" stroke-width="7.782" stroke-miterlimit="10" d="M1142.799,148.829"/>
		</g>
	</g>
	<g opacity="0.59">
		<g>
			<path stroke="#FFFFFF" stroke-width="7.782" stroke-miterlimit="10" d="M1199.291,150.813"/>
		</g>
	</g>
	<g>
		<g>
			<path stroke="#FFFFFF" stroke-width="7.782" stroke-miterlimit="10" d="M1197.503,149.026"/>
		</g>
	</g>
	<g>
		<path d="M1202.321,168.284c0.016,0.007,0.041-0.016,0.058-0.016l-3.427,0.008L1202.321,168.284z"/>
		<path d="M1202.321,156.31l-68.239-0.035c-2.695-0.007-4.862,2.695-4.854,6.012c0,3.284,2.173,5.954,4.846,5.982h7.299
			c0.652,6.105,3.329,11.828,7.745,16.199c5.113,5.107,11.903,7.922,19.113,7.924h0.002c7.217,0,14-2.818,19.1-7.926
			c4.399-4.398,7.07-10.117,7.728-16.197h7.319c2.649-0.069,4.798-2.732,4.825-5.982
			C1207.188,158.961,1205.001,156.274,1202.321,156.31z M1177.48,174.618c-2.476,2.48-5.758,3.846-9.248,3.846c0,0,0,0-0.002,0
			c-3.496,0-6.788-1.369-9.291-3.873c-1.166-1.152-2.084-2.503-2.728-3.969h24.003
			C1179.566,172.095,1178.646,173.452,1177.48,174.618z"/>
	</g>
	<g>
		<path d="M1226.05,74.906c0-31.13-25.325-56.454-56.457-56.454c-31.127,0-56.454,25.324-56.454,56.454
			c0,17.929,8.414,34.56,22.693,45.214v18.163l-1.793-0.003c-2.698-0.014-4.862,2.693-4.855,6.01c0,3.284,2.171,5.957,4.846,5.982
			h68.306c2.649-0.069,4.798-2.732,4.825-5.982c-0.012-2.345-1.113-4.347-2.695-5.326v-19.67
			C1218.045,108.61,1226.05,92.286,1226.05,74.906z M1172.426,138.302l-6.948-0.002l3.543-8.312L1172.426,138.302z M1157.094,83.297
			l-0.456,0.186l1.146-6.875l4.248,15.198l3.07-13.988l2.313,8.883l4.626-26.858l3.846,24.456l4.614-9.79l2.118,9.044l-0.893-0.381
			l-12.587,29.531L1157.094,83.297z M1193.566,110.025l-3.028,2.075v26.213l-10.907-0.008l-6.938-16.936l14.465-33.935l8.111-0.019
			l-0.021-3.48l-9.264,0.027l-4.99-18.665l-3.438,7.287l-5.352-34.132l-5.487,31.777l-1.905-7.335l-3.188,14.54l-3.868-13.832
			l-4.244,19.396l-7.463,0.021l0.014,3.479l5.134-0.014l14.271,34.833l-7.234,16.974l-8.472-0.004v-25.6l-3.184-2.057
			c-12.218-7.896-19.512-21.252-19.512-35.728c0-23.448,19.079-42.526,42.525-42.526c23.451,0,42.53,19.078,42.53,42.526
			C1212.123,88.942,1205.184,102.069,1193.566,110.025z"/>
		<path d="M1202.277,150.288c0.017,0.007,0.042-0.016,0.058-0.016l-3.426,0.014L1202.277,150.288z"/>
	</g>
</g>
</svg>
